<?xml version="1.0" encoding="utf-8"?>
<!-- Generator: Adobe Illustrator 22.0.0, SVG Export Plug-In . SVG Version: 6.00 Build 0)  -->
<svg version="1.1" id="b43bf247-fd00-4c66-86de-2f4e4870ba29"
	 xmlns="http://www.w3.org/2000/svg" xmlns:xlink="http://www.w3.org/1999/xlink" x="0px" y="0px" viewBox="0 0 784 784"
	 style="enable-background:new 0 0 784 784;" xml:space="preserve">
<style type="text/css">
	.st0{opacity:0.1;fill:#6C63FF;enable-background:new    ;}
	.st1{opacity:0.1;}
	.st2{fill:#3F3D56;}
	.st3{fill:#6C63FF;}
	.st4{opacity:0.1;enable-background:new    ;}
	.st5{fill:none;stroke:#3F3D56;stroke-width:7;stroke-linecap:round;stroke-miterlimit:10;}
</style>
<title>visual data</title>
<path class="st0" d="M763,719.3c-17.4,17.3-42.1,24.4-65.9,29l-4,0.7c-24.9,4.5-50.2,6.8-75.5,8.3c-13.5,0.8-27.1,1.3-40.6,1.8
	l-10.6,0.4c-13.8,0.5-27.6,1-41.4,1.4c-13.5,0.5-27.1,0.9-40.6,1.3c-17.3,0.5-34.7,0.9-52,1.3c-13.5,0.3-27.1,0.4-40.6,0.5
	c-17.3,0.1-34.7,0.1-52-0.1c-13.6-0.2-27.1-0.5-40.6-0.9c-17.4-0.5-34.7-1.3-52-2.4c-11.8-0.7-23.5-1.5-35.3-2.5l-5.4-0.5
	c-50.4-4.4-101.8-12.2-145.9-36.9l-1.2-0.7c-0.6-0.3-1.2-0.7-1.8-1c-8.1-4.7-15.9-10.1-23.2-16.3c-13-11.2-23.8-24.8-29.5-41
	c-8.9-25.4-4.2-53.9,6-78.7c10.2-24.8,25.5-47.2,38.7-70.6c3.9-6.8,7.6-13.9,11-21.2c21.4-45.7,32-98.5,9.6-142.5
	c-3-5.6-6.2-11-9.6-16.3c-5.5-8.6-11-17.1-14.8-26.6c-8.8-22-6.9-46.8-3.7-70.4c4.3-31.3,12.1-65,36.6-84.6
	c25.4-20.3,61.5-19.3,93.1-12c49.1,11.3,94.3,34.9,140,56.2s93.6,40.8,143.8,42.9c10.8,0.4,21.6,0,32.3-1.4l0,0
	c14.3-1.8,28.4-5.3,42.1-10.7c19.8-7.8,37.8-19.6,51.1-35.9c28.6-34.9,82.4-37.6,121.2-16.5c37,20.1,60.9,62.8,59.2,105.3
	c-2,47.4-31.6,86.3-58.7,126.3c-3.3,4.8-6.5,9.7-9.7,14.6c-1.8,2.7-3.5,5.5-5.2,8.2l0,0c-3,4.8-5.8,9.7-8.6,14.6
	c-13.8,25.3-23.6,55.6-14.1,82.9c5.3,15.3,15.5,26.9,27.8,37.1c27.5,22.8,65.6,38.1,82.7,70C790.5,660.2,785,697.3,763,719.3z"/>
<g class="st1">
	<path class="st2" d="M390.7,566.1c0,0.9,0.1,1.9,0.2,2.8c7.8-3.1,15.4-6.4,22.9-10c4-0.5,7.7-2.3,10.6-5.2c2.2-1.1,4.4-2.3,6.5-3.4
		c-0.5-1-1-2-1.7-3c-4.2-6.7-10.6-10.8-17.7-10.6s-13.2,4.8-16.9,11.7C391.8,553.9,390.4,560,390.7,566.1z"/>
	<path class="st2" d="M389.6,531.2c0.2,6.1,1.9,12.1,5.2,17.3c4.2,6.6,10.6,10.8,17.7,10.6c0.5,0,1-0.1,1.5-0.1
		c4-0.5,7.7-2.3,10.6-5.2c2-1.9,3.6-4,4.9-6.4c5.7-11.1,5.3-24.3-1.1-35c-4.2-6.7-10.6-10.8-17.7-10.6s-13.1,4.8-16.9,11.7
		C390.7,518.9,389.3,525,389.6,531.2z"/>
	
		<ellipse transform="matrix(0.9995 -3.280630e-02 3.280630e-02 0.9995 -16.0338 13.7267)" class="st2" cx="410.3" cy="495.5" rx="21.9" ry="28.6"/>
	
		<ellipse transform="matrix(0.9995 -3.280630e-02 3.280630e-02 0.9995 -14.8874 13.6703)" class="st2" cx="409.1" cy="460.5" rx="21.9" ry="28.6"/>
	
		<ellipse transform="matrix(0.9995 -3.280630e-02 3.280630e-02 0.9995 -13.7406 13.6138)" class="st2" cx="408" cy="425.5" rx="21.9" ry="28.6"/>
	<path class="st3" d="M482,183.6c2.9-3.9,5.4-8,7.7-12.3l-57.7-7.5l62.1-1.6c11.2-26.6,10.9-56.6-0.7-83l-81.9,45.9l75-59
		c-30.8-49-95.5-63.7-144.4-32.9s-63.7,95.5-32.9,144.4c2.5,4,5.3,7.8,8.3,11.4c-4.5,6.1-8.2,12.6-11.3,19.5l75.8,36.3l-80.4-24.1
		c-10.2,33.9-2.7,70.7,20.1,97.8c-34.2,46.6-24.2,112.2,22.4,146.4s112.2,24.2,146.4-22.4c28.6-39,26.8-92.5-4.3-129.4
		C514.8,274.1,513.1,220.6,482,183.6z"/>
	<path class="st4" d="M297.1,254.4c0.7,23.5,9.4,46,24.5,64C287.4,365,297.4,430.6,344,464.8c46.6,34.2,112.2,24.2,146.4-22.4
		c28.6-39,26.9-92.4-4.3-129.4C499.6,294.7,296.7,242.7,297.1,254.4z"/>
</g>
<g class="st1">
	<path class="st2" d="M161.4,750.4c0,0.7-0.1,1.3-0.1,2c-5.5-2.2-11-4.6-16.3-7.1c-2.8-0.4-5.5-1.7-7.5-3.7
		c-1.6-0.8-3.1-1.6-4.6-2.4c0.3-0.7,0.7-1.4,1.2-2.1c3-4.7,7.5-7.7,12.6-7.5s9.4,3.4,12,8.3C160.5,741.7,161.6,746,161.4,750.4z"/>
	<path class="st2" d="M162.2,725.5c-0.1,4.4-1.4,8.6-3.6,12.3c-3,4.7-7.5,7.7-12.6,7.5l-1-0.1c-2.8-0.4-5.5-1.7-7.5-3.7
		c-1.4-1.3-2.6-2.9-3.5-4.5c-4.1-7.9-3.8-17.3,0.8-24.9c3-4.7,7.5-7.7,12.6-7.5s9.4,3.4,12,8.3C161.4,716.8,162.4,721.1,162.2,725.5
		z"/>
	
		<ellipse transform="matrix(3.158516e-02 -0.9995 0.9995 3.158516e-02 -557.011 825.3679)" class="st2" cx="147.4" cy="700.1" rx="20.4" ry="15.6"/>
	
		<ellipse transform="matrix(3.158516e-02 -0.9995 0.9995 3.158516e-02 -531.3851 802.0448)" class="st2" cx="148.2" cy="675.2" rx="20.4" ry="15.6"/>
	
		<ellipse transform="matrix(3.158516e-02 -0.9995 0.9995 3.158516e-02 -505.7393 778.7223)" class="st2" cx="149" cy="650.3" rx="20.4" ry="15.6"/>
	<path class="st3" d="M96.1,478.2c-2-2.8-3.9-5.7-5.5-8.7l41.1-5.5l-44.2-1c-8-18.9-7.8-40.3,0.4-59.1l58.3,32.6l-53.4-41.9
		c21.8-34.9,67.7-45.6,102.7-23.9c34.9,21.8,45.6,67.7,23.9,102.7c-1.8,3-3.9,5.8-6.1,8.5c3.2,4.3,5.9,9,8.1,13.9l-53.9,25.9
		l57.2-17.2c7.3,24.1,2,50.3-14.2,69.6c24.4,33.1,17.3,79.8-15.8,104.2s-79.8,17.3-104.2-15.8c-20.4-27.7-19.2-65.8,2.9-92.1
		C72.8,542.6,74,504.5,96.1,478.2L96.1,478.2z"/>
	<path class="st4" d="M227.7,528.4c-0.5,16.7-6.6,32.8-17.4,45.6c24.4,33.1,17.3,79.8-15.8,104.2s-79.8,17.3-104.2-15.8
		c-20.4-27.7-19.2-65.8,2.9-92.1C83.6,557.3,228,520.1,227.7,528.4z"/>
</g>
<g class="st1">
	<path class="st2" d="M682.2,620.3c0,0.7-0.1,1.3-0.1,2c-5.5-2.2-11-4.6-16.3-7.1c-2.8-0.4-5.5-1.7-7.5-3.7
		c-1.5-0.8-3.1-1.6-4.7-2.4c0.4-0.7,0.7-1.4,1.2-2.1c3-4.7,7.5-7.7,12.6-7.5s9.4,3.4,12,8.3C681.3,611.6,682.3,615.9,682.2,620.3z"
		/>
	<path class="st2" d="M683,595.4c-0.1,4.4-1.4,8.6-3.7,12.3c-3,4.7-7.5,7.7-12.6,7.5l-1-0.1c-2.8-0.4-5.5-1.7-7.5-3.7
		c-1.4-1.3-2.6-2.9-3.5-4.5c-4.1-7.9-3.8-17.3,0.8-24.9c3-4.7,7.5-7.7,12.6-7.5s9.4,3.4,12,8.3C682.2,586.7,683.2,591,683,595.4z"/>
	
		<ellipse transform="matrix(3.158516e-02 -0.9995 0.9995 3.158516e-02 77.3358 1219.9615)" class="st2" cx="668.2" cy="570.1" rx="20.4" ry="15.6"/>
	
		<ellipse transform="matrix(3.158516e-02 -0.9995 0.9995 3.158516e-02 102.9716 1196.6488)" class="st2" cx="669" cy="545.2" rx="20.4" ry="15.6"/>
	
		<ellipse transform="matrix(3.158516e-02 -0.9995 0.9995 3.158516e-02 128.6069 1173.3361)" class="st2" cx="669.8" cy="520.3" rx="20.4" ry="15.6"/>
	<path class="st3" d="M616.9,348.1c-2-2.8-3.9-5.7-5.5-8.7l41.1-5.4l-44.2-1.1c-8-18.9-7.8-40.3,0.4-59.1l58.3,32.6l-53.4-41.9
		c21.7-35,67.6-45.8,102.6-24.1c35,21.7,45.8,67.6,24.1,102.6c-1.9,3-4,6-6.3,8.7c3.2,4.3,5.9,9,8.1,13.9l-53.9,25.9l57.2-17.2
		c7.3,24.1,2,50.3-14.2,69.6c24.4,33.1,17.3,79.8-15.8,104.2c-33.1,24.4-79.8,17.3-104.2-15.8c-20.4-27.7-19.2-65.8,2.9-92.1
		C593.6,412.5,594.8,374.5,616.9,348.1L616.9,348.1z"/>
	<path class="st4" d="M748.5,398.4c-0.5,16.7-6.6,32.8-17.4,45.6c24.4,33.1,17.3,79.8-15.8,104.2c-33.1,24.4-79.8,17.3-104.2-15.8
		c-20.4-27.7-19.2-65.8,2.9-92.1C604.4,427.3,748.8,390,748.5,398.4z"/>
</g>
<path class="st2" d="M181.7,534v226c-16.5-0.8-33-1.8-49.5-2.9l-7.5-0.5V534c0-4.9,3.9-8.8,8.8-8.8l0,0h39.4
	C177.8,525.2,181.7,529.1,181.7,534z"/>
<path class="st2" d="M254.7,762.8V383c0-4.9,3.9-8.8,8.8-8.8l0,0h39.4c4.9,0,8.8,3.9,8.8,8.8l0,0v380.8L254.7,762.8z"/>
<path class="st2" d="M384.7,764V462c0-4.9,3.9-8.8,8.8-8.8l0,0h39.4c4.9,0,8.8,3.9,8.8,8.8l0,0v301.3L384.7,764z"/>
<path class="st2" d="M571.7,238v522.3c-19,0.5-38,1-57,1.5V238c0-4.9,3.9-8.8,8.8-8.8l0,0h39.4C567.8,229.2,571.7,233.1,571.7,238
	L571.7,238z"/>
<path class="st2" d="M701.7,343v413c-19,0.9-38,1.6-57,2.2V343c0-4.9,3.9-8.8,8.8-8.8l0,0h39.4C697.8,334.2,701.7,338.1,701.7,343
	L701.7,343z"/>
<polyline class="st5" points="153.7,402.2 283.7,257.2 413.7,330.2 543.7,106.2 673.7,213.2 "/>
<circle class="st3" cx="153.2" cy="402.2" r="28"/>
<circle class="st3" cx="283.2" cy="257.2" r="28"/>
<circle class="st3" cx="413.2" cy="330.2" r="28"/>
<circle class="st3" cx="543.2" cy="106.2" r="28"/>
<ellipse class="st0" cx="68.9" cy="722.4" rx="18.7" ry="3.2"/>
</svg>
