<svg version="1.1" id="ea98fdbc-a252-4665-af64-abf278d5674c" xmlns="http://www.w3.org/2000/svg" x="0" y="0" viewBox="0 0 891 711" xml:space="preserve"><style>.st0{fill:#f2f2f2}.st1{fill:#f5f5f5}.st3{fill:#fff}.st4{fill:#ff5252}.st5{fill:#ff0}.st6{fill:#69f0ae}.st7{opacity:.2}.st8,.st9{fill:#4e91f2}.st9{opacity:.5;enable-background:new}.st16{fill:#ff9800}.st19{opacity:.5;fill:#fff;enable-background:new}.st21{fill:none;stroke:#4e91f2;stroke-miterlimit:10}.st31{fill:#ca7070}.st32{fill:#00695c}.st33{opacity:.2;fill:#fff;enable-background:new}.st34{fill:#263238}.st37{fill:#f6b9ad}.st52{fill:#985454}</style><ellipse class="st0" cx="370" cy="694" rx="67" ry="17"/><ellipse class="st0" cx="375" cy="506" rx="67" ry="17"/><ellipse class="st0" cx="67" cy="514" rx="67" ry="17"/><path class="st1" d="M22.6 4h383v14.5h-383z"/><linearGradient id="SVGID_1_" gradientUnits="userSpaceOnUse" x1="213.6" y1="-178" x2="213.6" y2="-664" gradientTransform="translate(0 664)"><stop offset="0" stop-color="gray" stop-opacity=".25"/><stop offset=".54" stop-color="gray" stop-opacity=".12"/><stop offset="1" stop-color="gray" stop-opacity=".1"/></linearGradient><path fill="url(#SVGID_1_)" d="M15.6 0h396v486h-396z"/><path class="st3" d="M22.6 18.5h383V478h-383z"/><circle class="st4" cx="30.5" cy="11.5" r="3.5"/><circle class="st5" cx="40.1" cy="11.5" r="3.5"/><circle class="st6" cx="49.8" cy="11.5" r="3.5"/><g class="st7"><path class="st8" d="M33.6 36h149v9h-149z"/></g><path class="st1" d="M139.6 73h149v9h-149z"/><path class="st9" d="M33.6 363h149v9h-149z"/><linearGradient id="SVGID_2_" gradientUnits="userSpaceOnUse" x1="227.6" y1="-291" x2="227.6" y2="-302" gradientTransform="translate(0 664)"><stop offset="0" stop-color="gray" stop-opacity=".25"/><stop offset=".54" stop-color="gray" stop-opacity=".12"/><stop offset="1" stop-color="gray" stop-opacity=".1"/></linearGradient><path fill="url(#SVGID_2_)" d="M202.6 362h50v11h-50z"/><linearGradient id="SVGID_3_" gradientUnits="userSpaceOnUse" x1="227.6" y1="-235" x2="227.6" y2="-246" gradientTransform="translate(0 664)"><stop offset="0" stop-color="gray" stop-opacity=".25"/><stop offset=".54" stop-color="gray" stop-opacity=".12"/><stop offset="1" stop-color="gray" stop-opacity=".1"/></linearGradient><path fill="url(#SVGID_3_)" d="M202.6 418h50v11h-50z"/><linearGradient id="SVGID_4_" gradientUnits="userSpaceOnUse" x1="329.6" y1="-235" x2="329.6" y2="-246" gradientTransform="translate(0 664)"><stop offset="0" stop-color="gray" stop-opacity=".25"/><stop offset=".54" stop-color="gray" stop-opacity=".12"/><stop offset="1" stop-color="gray" stop-opacity=".1"/></linearGradient><path fill="url(#SVGID_4_)" d="M304.6 418h50v11h-50z"/><path class="st8" d="M204.6 363h47v9h-47zM204.6 419h47v9h-47zM305.6 419h47v9h-47z"/><path class="st1" d="M33.6 391h149v9h-149z"/><path class="st9" d="M204.6 391h149v9h-149z"/><path class="st1" d="M204.6 447h149v9h-149z"/><path class="st9" d="M33.6 419h149v9h-149z"/><path class="st1" d="M33.6 447h149v9h-149zM139.6 88h84v9h-84zM238.6 88h29v9h-29zM139.6 118h84v9h-84zM238.6 118h29v9h-29zM139.6 103h149v9h-149z"/><g class="st7"><path class="st8" d="M243.6 36h149v9h-149z"/></g><linearGradient id="SVGID_5_" gradientUnits="userSpaceOnUse" x1="336.6" y1="-581" x2="336.6" y2="-592" gradientTransform="translate(0 664)"><stop offset="0" stop-color="gray" stop-opacity=".25"/><stop offset=".54" stop-color="gray" stop-opacity=".12"/><stop offset="1" stop-color="gray" stop-opacity=".1"/></linearGradient><path fill="url(#SVGID_5_)" d="M327.6 72h18v11h-18z"/><linearGradient id="SVGID_6_" gradientUnits="userSpaceOnUse" x1="336.6" y1="-566" x2="336.6" y2="-577" gradientTransform="translate(0 664)"><stop offset="0" stop-color="gray" stop-opacity=".25"/><stop offset=".54" stop-color="gray" stop-opacity=".12"/><stop offset="1" stop-color="gray" stop-opacity=".1"/></linearGradient><path fill="url(#SVGID_6_)" d="M327.6 87h18v11h-18z"/><linearGradient id="SVGID_7_" gradientUnits="userSpaceOnUse" x1="336.6" y1="-551" x2="336.6" y2="-562" gradientTransform="translate(0 664)"><stop offset="0" stop-color="gray" stop-opacity=".25"/><stop offset=".54" stop-color="gray" stop-opacity=".12"/><stop offset="1" stop-color="gray" stop-opacity=".1"/></linearGradient><path fill="url(#SVGID_7_)" d="M327.6 102h18v11h-18z"/><path class="st4" d="M328.6 73h16v9h-16z"/><path class="st16" d="M328.6 88h16v9h-16z"/><path class="st6" d="M328.6 103h16v9h-16z"/><linearGradient id="SVGID_8_" gradientUnits="userSpaceOnUse" x1="336.6" y1="-536" x2="336.6" y2="-547" gradientTransform="translate(0 664)"><stop offset="0" stop-color="gray" stop-opacity=".25"/><stop offset=".54" stop-color="gray" stop-opacity=".12"/><stop offset="1" stop-color="gray" stop-opacity=".1"/></linearGradient><path fill="url(#SVGID_8_)" d="M327.6 117h18v11h-18z"/><path class="st8" d="M328.6 118h16v9h-16z"/><linearGradient id="SVGID_9_" gradientUnits="userSpaceOnUse" x1="214.1" y1="-332" x2="214.1" y2="-482" gradientTransform="translate(0 664)"><stop offset="0" stop-color="gray" stop-opacity=".25"/><stop offset=".54" stop-color="gray" stop-opacity=".12"/><stop offset="1" stop-color="gray" stop-opacity=".1"/></linearGradient><path fill="url(#SVGID_9_)" d="M30.6 182h367v150h-367z"/><path class="st9" d="M33.6 185h359v142h-359z"/><path class="st19" d="M44.6 196h348v-11h-359v142h11z"/><linearGradient id="SVGID_10_" gradientUnits="userSpaceOnUse" x1="447.585" y1="-302.405" x2="447.585" y2="-454.456" gradientTransform="matrix(.9959 -.09063 .09063 .9959 -187.813 682.491)"><stop offset="0" stop-color="gray" stop-opacity=".25"/><stop offset=".54" stop-color="gray" stop-opacity=".12"/><stop offset="1" stop-color="gray" stop-opacity=".1"/></linearGradient><path fill="url(#SVGID_10_)" d="M32.5 206.1L401 172.6 414.7 324 46.3 357.5z"/><path transform="matrix(.9959 -.09063 .09063 .9959 -23.005 21.388)" class="st3" d="M44.5 193h359v142h-359z"/><path class="st9" d="M65.5 325.6l-6.2-78.8s32-34 96.6-8.8 95.1 7.4 105.6-9.6 65-36 82.7-7.5 38.8-3.5 38.8-3.5l7.2 78.7-324.7 29.5z"/><path class="st21" d="M98 229.7l.6 5.9"/><path fill="none" stroke="#4e91f2" stroke-miterlimit="10" stroke-dasharray="11.51,11.51" d="M99.6 247.1l5.8 63.1"/><path class="st21" d="M105.9 315.9l.5 6M159.5 239.4l.6 6"/><path fill="none" stroke="#4e91f2" stroke-miterlimit="10" stroke-dasharray="13.06,13.06" d="M161.3 258.4l4.1 45.5"/><path class="st21" d="M166 310.4l.5 6M222.3 250.1l.6 6"/><path fill="none" stroke="#4e91f2" stroke-miterlimit="10" stroke-dasharray="9.79,9.79" d="M223.8 265.8l3.4 34.1"/><path class="st21" d="M227.7 304.8l.6 6M278.6 214.8l.6 6"/><path fill="none" stroke="#4e91f2" stroke-miterlimit="10" stroke-dasharray="11.28,11.28" d="M280.2 232.1l5.6 61.7"/><path class="st21" d="M286.4 299.5l.5 5.9M319.4 206.6l.5 6"/><path fill="none" stroke="#4e91f2" stroke-miterlimit="10" stroke-dasharray="11.93,11.93" d="M321 224.4l5.9 65.4"/><path class="st21" d="M327.5 295.7l.5 6"/><ellipse class="st16" cx="97.9" cy="229.3" rx="5" ry="5"/><circle class="st4" cx="159" cy="239.8" r="5"/><circle class="st6" cx="222.2" cy="250.1" r="5"/><linearGradient id="SVGID_11_" gradientUnits="userSpaceOnUse" x1="506.575" y1="-416.465" x2="506.575" y2="-430.466" gradientTransform="matrix(.9959 -.09063 .09063 .9959 -187.823 682.495)"><stop offset="0" stop-color="gray" stop-opacity=".25"/><stop offset=".54" stop-color="gray" stop-opacity=".12"/><stop offset="1" stop-color="gray" stop-opacity=".1"/></linearGradient><circle cx="278.3" cy="214.9" r="7" fill="url(#SVGID_11_)"/><linearGradient id="SVGID_12_" gradientUnits="userSpaceOnUse" x1="548.503" y1="-420.455" x2="548.503" y2="-434.456" gradientTransform="matrix(.9959 -.09063 .09063 .9959 -187.815 682.488)"><stop offset="0" stop-color="gray" stop-opacity=".25"/><stop offset=".54" stop-color="gray" stop-opacity=".12"/><stop offset="1" stop-color="gray" stop-opacity=".1"/></linearGradient><circle cx="319.7" cy="207.1" r="7" fill="url(#SVGID_12_)"/><circle class="st8" cx="278.3" cy="214.9" r="5"/><circle class="st8" cx="319.7" cy="207.1" r="5"/><circle class="st6" cx="383.1" cy="219.4" r="5"/><g class="st7"><linearGradient id="SVGID_13_" gradientUnits="userSpaceOnUse" x1="547.994" y1="-250.58" x2="547.994" y2="-250.84" gradientTransform="translate(-154.5 569.52)"><stop offset="0" stop-color="gray" stop-opacity=".25"/><stop offset=".54" stop-color="gray" stop-opacity=".12"/><stop offset="1" stop-color="gray" stop-opacity=".1"/></linearGradient><path d="M393.3 318.7l.1.2c.7-.4-.1-.2-.1-.2z" fill="url(#SVGID_13_)"/></g><g class="st7"><linearGradient id="SVGID_14_" gradientUnits="userSpaceOnUse" x1="517.85" y1="-82.72" x2="517.85" y2="-255.409" gradientTransform="translate(-154.5 569.52)"><stop offset="0" stop-color="gray" stop-opacity=".25"/><stop offset=".54" stop-color="gray" stop-opacity=".12"/><stop offset="1" stop-color="gray" stop-opacity=".1"/></linearGradient><path d="M385 486.7l16.3-2.6-2.2-10v-.1h-.1l-11.5-53v-38.6c0-.5 0-1-.1-1.5 17.2-22.9 7-58.7 6-61.9-.2.1-.5.2-.8.4-.1-1.4-.4-2.8-.8-4.1 0 0-5-3.2-7.7.9-2.4 3.6-.6 5.8-.1 6.3l-.3.1c.8 1.2 1.3 2.5 1.6 3.9-.2-.3-.3-.7-.5-1-.6-.1-1-.2-1-.2l-.1-.1-.3.1c1.7 2.5 2.3 7 2.3 12.3-.6-.8-1.3-1.6-2-2.3-3.2-3-7.3-4.8-11.7-4.9h-.8c-.5 0-.9 0-1.4.1h-.3l-.6.1-.7.1-.5.1-.8.2-.3.1c-.3.1-.7.2-1 .4-1.1.5-2.2.9-3.4 1.2h-.5c-1.3.1-2.7-.3-3.8-1.1l-.4-.3c-.1-.1-.3-.2-.4-.4-.1.3-.2.7-.2 1.1.1.9.5 1.7 1.2 2.3.2.2.4.3.6.4.3.2.7.3 1.1.3h.4-.1c-.2.1-.5.2-.7.3-.3.1-.5.2-.8.2-1.3.3-2.7.4-4 .1l-.4-.1c-.2-.1-.4-.1-.6-.2.1.2.1.3.2.4l.1.1.2.3.1.1.2.3.1.1.3.3.1.1.4.3.1.1.3.2.2.1.2.1.2.1.3.1.2.1.3.1.4.1.3.1h1.7c.5 0 1-.2 1.5-.4l-.9.4-.5.2-.5.2-.5.1-.5.1-.5.1-.5.1-.5.1-.5.1-.4.1-.6.1h-2.3c.6.2 1.1.4 1.5.8.3.2.6.4.9.5.1 0 .3.1.5.1H357.9c.9.1 1.8.4 2.6.8.4.3.8.6 1.1 1-.1.2-.3.5-.4.7l-.3.6c-.2.4-.4.8-.5 1.3-.6 1.6-.9 3.2-.9 4.9v1.2c0 .2 0 .5.1.7v.2c0 .3.1.6.2.9v.2c.1.2.1.5.2.7l.1.2c.2.6.4 1.1.6 1.7l.1.2c.1.2.2.5.3.7v.1c.1.3.3.5.5.8v.1c.1.2.3.5.5.7l.1.1c.4.5.8 1 1.2 1.4 1.1 1.1 2.4 2.1 3.8 2.8 0 .2-.1.4-.1.6v6c-.3.2-.6.3-.9.5-12.5-5.7-31.2-46-31.2-46h-.5c1.8-1.4 0-7.3 0-7.3-1.1-.6-2.3-1-3.5-1.2h-1.6l-.2.1h-.1l-.3.1-.3.1h-.1l-.2.1-.1.6-.2.1-.1.1-.2.1-.1.1-.2.2-.1.1-.2.2-.1.1-.3.3c-2.7 4.1 0 6.4 0 6.4-.2 1.6-.3 3.2-.3 4.8-.2 29.5 31.3 52.3 32.9 53.4-.7 1.8-6.6 18.1.1 38.5 0 0 0 .1.1.1-15.4 14.2-22.1 35.4-17.7 55.9l.1.6h.3c0 .1-.1.3-.1.4-.1.2-.2.5-.3.7-.2.4-.4.7-.7 1.1-.3.4-.7.7-1 1.1l-.4.4c-1.6 1.5-3.2 3-2 3.6h17.2v-7.5h.3s-.1-.2-.3-.7v-.1h-.1c-.9-2.3-3-9.5.4-20.6 4.1-13.7 20-20.5 20-20.5l.3 1h-.1l12.5 41v.5c-.1.4-.1.8-.3 1.1-.1.3-.2.6-.3.8-.8 1.6-2.1 3.5-2.7 4.9-.1.2-.2.4-.2.6-.1.2-.1.5-.1.7 0 .3.2.6.5.7h.2l.1-.1zM380.2 370c-.3-.2-.6-.3-1-.5v-5c0-.4 0-.8-.1-1.1 1.1-.5 2.1-1.2 3-1.9-.6 3-1.3 5.9-1.9 8.5z" fill="url(#SVGID_14_)"/></g><path class="st31" d="M325.9 328.6s-3-2.5 0-7.1 8.6-1 8.6-1 2 6.5 0 8.1-8.6 0-8.6 0z"/><path id="cbb1ca8a-3a06-4d8d-9881-c3637d2b9b50" class="st32" d="M357 497.3h-13.9c.1 1.3-.4 2.6-1.3 3.6-1.9 2.2-5.6 4.8-3.9 5.7H357v-9.3z"/><path class="st33" d="M342.9 500.8c.9-.9 1.4-2.2 1.3-3.6h-1c.1 1.3-.4 2.6-1.3 3.6-1.9 2.2-5.6 4.8-3.9 5.7h1c-1.8-.9 2-3.5 3.9-5.7z"/><path id="ec846da8-b8c9-4838-98ee-b96510078eab" class="st32" d="M406.5 494.4l-13 2.1c.4 1.5.2 3.2-.6 4.6-1.4 3-4.6 6.7-2.7 7.5l18.8-3-2.5-11.2z"/><path class="st32" d="M400.2 322.5s14.9 46.9-10.1 72.9l-7.2-5.5s14.7-51.2 6.5-63.2c14.5-4.9 10.8-4.2 10.8-4.2z"/><path class="st31" d="M389.9 326.6s-3-2.5 0-7.1 8.6-1 8.6-1 2 6.5 0 8.1-8.6 0-8.6 0z"/><path class="st33" d="M393.9 501.1c.7-1.4 1-3 .6-4.6l12-2v-.2l-13 2.2c.4 1.5.2 3.2-.6 4.6-1.4 3-4.6 6.7-2.7 7.5l.8-.1c-1.4-1 1.5-4.6 2.9-7.4z"/><path class="st31" d="M377.5 366.2c3.9 0 7.1 3.2 7.1 7.1v6.8c0 3.9-3.2 7.1-7.1 7.1-3.9 0-7.1-3.2-7.1-7.1v-6.8c.1-4 3.2-7.1 7.1-7.1z"/><path class="st33" d="M383.9 392.8s14.6-50.6 6.6-63c-.7-.1-1.2-.2-1.2-.2l-.1-.1-.4.1c8.3 12-6.5 63.2-6.5 63.2l7.2 5.5.6-.7-6.2-4.8z"/><circle class="st31" cx="377.8" cy="357.9" r="15.6"/><path class="st33" d="M372.2 380v-6.8c0-.5.1-1 .2-1.5-7.7-3.9-10.7-13.4-6.8-21 2.5-4.9 7.5-8.1 13-8.5h-.9c-8.6 0-15.6 7-15.6 15.6 0 5.9 3.3 11.2 8.5 13.9-.1.5-.2 1-.2 1.5v6.8c0 3.9 3.1 7 6.9 7.1.3 0 .7 0 1-.1-3.4-.4-6.1-3.4-6.1-7z"/><path class="st32" d="M393.7 435.7s-30.1 3.4-31.2 0c-7.8-23.9 0-42.8 0-42.8 0-8.6 7-15.6 15.6-15.6s15.6 7 15.6 15.6v42.8z"/><path class="st34" d="M393.7 435.7l13.6 62.5h-13.6l-14.1-46.4s-17.6 7.6-22.2 22.7 0 23.7 0 23.7h-14.6l-.1-.7c-4.9-22.7 2.6-46.2 19.8-61.8"/><path class="st33" d="M364.2 435.7c-7.8-23.9 0-42.8 0-42.8 0-8.2 6.4-15.1 14.6-15.6h-1c-8.6 0-15.6 7-15.6 15.6 0 0-7.8 18.9 0 42.8.4 1.2 4.5 1.6 9.6 1.5-4.1-.1-7.3-.5-7.6-1.5z"/><path class="st32" d="M362.2 392.6s-40.3-28.2-36.3-64h9.1s21.7 46.9 35.5 51.4-8.3 12.6-8.3 12.6z"/><g class="st7"><path class="st3" d="M379.8 452.9l13.8 45.5h2L381.5 452c0 .1-.6.4-1.7.9zM364.4 435.9h-2c-17.2 15.6-24.7 39.1-19.8 61.8l.1.7h2l-.1-.7c-4.9-22.6 2.7-46.2 19.8-61.8z"/></g><path class="st33" d="M327.4 329.1h-1.5c-4 35.8 36.3 64 36.3 64l1-.4c-4.7-3.4-39.6-30.2-35.8-63.6z"/><path class="st34" d="M365.3 350.9c.9 2 1.5 4.1 1.8 6.3 1 4.4 3.3 8.8 7.2 11 2.2 1.2 4.6 1.8 7 1.9 3.7.2 7.8-.5 10.4-3.1 1.6-1.8 2.7-4 3.2-6.4 1.6-7.2-.5-14.6-5.7-19.9-5.3-5.1-13.1-6.8-20-4.2-1.2.6-2.5 1.1-3.8 1.4-2 .3-4.1-.4-5.5-1.8-.6 1.8.5 3.8 2.3 4.4.3.1.7.2 1.1.2-2.3 1.1-5 1.3-7.5.4 1.4 3 4.9 4.4 8 3.2-2.8 1.3-5.9 1.9-9 1.8.6 0 1.9 1.2 2.7 1.4 1 .2 2 .2 3 .2 2 0 3.9 1.3 4.8 3.2z"/><g class="st7"><path class="st3" d="M363.3 340.5c-1.2.6-2.4.9-3.7 1 1.6.1 3.2-.2 4.7-1-1.9 0-3.5-1.6-3.6-3.5v-.3c-.3-.2-.6-.4-.8-.7-.6 1.8.5 3.8 2.3 4.4.3.1.7.1 1.1.1zM366.4 337.9c1.3-.3 2.6-.8 3.8-1.4 1.9-.8 3.9-1.2 6-1.2-2.4-.1-4.8.3-7 1.2-1.2.6-2.5 1.1-3.8 1.4-.2 0-.4 0-.5.1.5 0 1 0 1.5-.1zM358.4 347.4c-.8-.2-2.1-1.4-2.7-1.4 3.1 0 6.2-.6 9-1.8-.6.3-1.3.4-2 .4-2.6 1-5.3 1.5-8 1.4.6 0 1.9 1.2 2.7 1.4.7.2 1.4.2 2.1.2-.4 0-.7-.1-1.1-.2zM382.3 370.1c-2.4-.1-4.8-.7-7-1.9-3.9-2.3-6.1-6.6-7.2-11-.3-2.2-.9-4.3-1.8-6.3-.9-1.9-2.8-3.1-4.9-3.2h-1.5.5c2.1.1 4 1.3 4.9 3.2.9 2 1.5 4.1 1.8 6.3 1 4.4 3.3 8.8 7.2 11 2.2 1.2 4.6 1.8 7 1.9h1.8-.8zM362.1 344.5c-2.1-.2-4.1-1.4-5.1-3.3l-1.2-.3c1.1 2.4 3.6 3.8 6.3 3.6z"/></g><path class="st33" d="M326.9 328.6s-3-2.5 0-7.1c.8-1.3 2.2-2.2 3.7-2.3-1.9-.2-3.7.7-4.7 2.3-3 4.5 0 7.1 0 7.1 1.9.4 3.9.7 5.9.7-1.6-.1-3.3-.3-4.9-.7z"/><g class="st7"><linearGradient id="SVGID_15_" gradientUnits="userSpaceOnUse" x1="191.34" y1="-240.67" x2="191.34" y2="-240.98" gradientTransform="translate(-154.5 569.52)"><stop offset="0" stop-color="gray" stop-opacity=".25"/><stop offset=".54" stop-color="gray" stop-opacity=".12"/><stop offset="1" stop-color="gray" stop-opacity=".1"/></linearGradient><path d="M37 328.8l.1-.3c0 .1-1.1-.1-.1.3z" fill="url(#SVGID_15_)"/></g><g class="st7"><linearGradient id="SVGID_16_" gradientUnits="userSpaceOnUse" x1="228.366" y1="-44.22" x2="228.366" y2="-246.725" gradientTransform="translate(-154.5 569.52)"><stop offset="0" stop-color="gray" stop-opacity=".25"/><stop offset=".54" stop-color="gray" stop-opacity=".12"/><stop offset="1" stop-color="gray" stop-opacity=".1"/></linearGradient><path d="M131.2 345.6c-.1-.3-.2-.6-.4-.9 0-.1-.1-.2-.1-.3-.1-.2-.2-.4-.3-.5l-.2-.3c-.1-.1-.2-.3-.3-.4l-.2-.2c-.1-.1-.2-.2-.4-.3l-.3-.2-.4-.2-.3-.1-.5-.2-.2-.1c-.2-.1-.4-.1-.6-.2-1.5-.3-3-.2-4.4.1 0 0-4.2 6.2-2.6 8.4l-.5-.2s-31.1 34.7-48.7 41.2c-.4-.3-.9-.6-1.4-.9v-6.5-.8c0-.3-.1-.5-.1-.8l.1-.1.5-.3.8-.5.5-.3c.4-.2.7-.5 1-.8l.4-.3c.2-.2.5-.4.7-.6l.4-.4c.3-.3.5-.6.8-.9l.3-.3c.2-.3.5-.6.7-.9l.3-.4.6-.9.2-.3c.2-.4.4-.8.6-1.3l.2-.4c.1-.4.3-.7.4-1.1 0-.1.1-.3.1-.4.1-.5.3-.9.4-1.4 0-.1 0-.2.1-.3.1-.4.1-.8.2-1.2v-.4c0-.5.1-1 .1-1.5 0-3.9-1.3-7.7-3.8-10.7 1.3-2.1 2.2-3.3 2.2-3.3l-2.4-1.5-.8-.5c-.5-.3-1-.6-1.6-.9l-.9-.5c-.5-.3-.9-.5-1.4-.7l-.9-.4-1.3-.6-.9-.4c-.4-.2-.9-.3-1.3-.5l-.8-.3c-.4-.1-.9-.3-1.3-.4l-.7-.2-1.5-.3-.5-.1c-.7-.1-1.3-.2-2-.3-4.1-.4-8.2.2-12 1.8.2-4.8 1-8.7 2.7-11.2l-.4-.1-.1.1s-.5.1-1.3.3c-.2.4-.5.8-.6 1.2.3-1.7 1-3.3 1.9-4.8l-.4-.1c.6-.6 2.7-3.2-.1-7.5-3.3-4.9-9.3-1.1-9.3-1.1-.5 1.6-.8 3.3-.9 5-.5-.2-.8-.3-1-.4-2.9 10.2-4.5 20.7-4.7 31.4-10.9 15.5-15.4 38.3-16.3 43.2l-.1.4c-.1.4-.1.5-.1.5l28.3.7V450.1l-20.6 43.6s7.8.3 19.6 1.8l-3.3 23.3-1.1 6.5h19.6c2.2-4.4-8.7-6.5-8.7-6.5h-.2L54 497c1.9.3 3.8.6 5.8 1 2.9.6 5.9.9 8.8 1 2.5.1 4.9 0 7.4-.3 1.4 11.8-.4 18.8-.8 20h-.1l-1.1 6.5h19.6c1.9-3.8-6.1-6-8.2-6.4l.1-.6c1-7.4 1.3-14.8.8-22.2 2.5-1 4.9-2.4 7-4.2l.3-.2.1-.1-14.6-41c2.7-11.6-6.8-23.8-1.7-29.9s2-13.9 1.4-15.2c13.7-6 41.5-21 49.2-47 .6-1.8 1-3.7 1.4-5.6-.4.1 3.5-1.5 1.8-7.2z" fill="url(#SVGID_16_)"/></g><path class="st4" d="M40.1 336.5s-14.9 46.9 10.1 72.9l7.2-5.5s-14.7-51.2-6.5-63.2c-14.6-4.9-10.8-4.2-10.8-4.2z"/><path class="st37" d="M50.4 340.6s3-2.5 0-7.1-8.6-1-8.6-1-2 6.5 0 8.1 8.6 0 8.6 0zM62.7 401.1c-3.9 0-7.1-3.2-7.1-7.1v-6.8c0-3.9 3.2-7.1 7.1-7.1 3.9 0 7.1 3.2 7.1 7.1v6.8c0 3.9-3.2 7.1-7.1 7.1z"/><path class="st33" d="M56.3 406.8s-14.6-50.6-6.6-63c.7-.1 1.1-.2 1.1-.2l.1-.1.4.1c-8.3 12 6.5 63.2 6.5 63.2l-7.2 5.5-.6-.7 6.3-4.8z"/><circle class="st37" cx="62.5" cy="371.9" r="15.6"/><path class="st33" d="M68 394v-6.8c0-.5-.1-1-.2-1.5 7.7-3.9 10.7-13.4 6.8-21-2.5-4.9-7.5-8.1-13-8.5h.9c8.6 0 15.6 7 15.6 15.6 0 5.9-3.3 11.2-8.5 13.9.1.5.2 1 .2 1.5v6.8c0 3.9-3.1 7-6.9 7.1-.3 0-.7 0-1-.1 3.5-.4 6.1-3.4 6.1-7z"/><path class="st4" d="M46.6 449.7s30.1 3.4 31.2 0c3.6-11-6-22.9-1.2-28.7 5-6 1.2-14.1 1.2-14.1 0-8.6-7-15.6-15.6-15.6s-15.6 7-15.6 15.6v42.8z"/><path class="st33" d="M76.7 421c5-6 1.2-14.1 1.2-14.1 0-8.6-7-15.6-15.6-15.6h-1c8.2.5 14.6 7.3 14.6 15.6 0 0 3.8 8.1-1.2 14.1-4.8 5.8 4.8 17.7 1.2 28.7-.3 1-3.4 1.5-7.6 1.5 5.1 0 9.2-.3 9.6-1.5 3.6-11-6.1-22.9-1.2-28.7z"/><path class="st37" d="M71.4 448.7c11 15.6 15.9 39.2 12.7 61.8l-.1.7h-9.4s2.9-8.6 0-23.7c-1.8-9.1-6.9-17.1-14.2-22.7l-9.1 46.4h-8.7l8.7-62.5h20.1zM124.4 358.8s3.6-1.5 2.1-6.8-7.9-3.5-7.9-3.5-3.9 5.7-2.4 7.7 8.2 2.6 8.2 2.6z"/><path class="st4" d="M70.9 409.4s46.8-15.2 53.4-50.6l-8.7-2.7s-34.4 38.5-49 38.7 4.3 14.6 4.3 14.6z"/><path class="st33" d="M122.8 358.9l1.5.4c-6.6 35.4-53.4 50.6-53.4 50.6l-.8-.6c5.4-2 46.5-17.4 52.7-50.4z"/><g class="st7"><path class="st3" d="M58.4 464.8l-9.1 46.4h2l8.8-45c-.5-.5-1.1-.9-1.7-1.4zM71.4 448.7h-2c11 15.6 15.9 39.2 12.7 61.8l-.1.7h2l.1-.7c3.2-22.6-1.7-46.2-12.7-61.8z"/></g><path class="st33" d="M123.4 358.5s3.6-1.5 2.1-6.8c-.4-1.5-1.5-2.7-2.9-3.3 1.9.3 3.4 1.7 3.9 3.6 1.6 5.2-2.1 6.8-2.1 6.8-2-.2-4-.5-5.9-1.1 1.6.4 3.3.7 4.9.8z"/><path class="st34" d="M46.6 448l-19 40c11.1.6 22.1 1.9 33 4 21 4 31-6 31-6L78 448H46.6z"/><path class="st4" d="M51.6 511s10 2 8 6h-18l1-6h9zM83.6 511s10 2 8 6h-18l1-6h9z"/><path d="M76.6 359s-24 34-13 48l-43-1s12-77 56-47z" fill="#fccc63"/><path class="st33" d="M76.6 359c-6.2-4.2-11.8-6.3-16.8-6.8 4.2 1.3 8.2 3.3 11.8 5.8 0 0-24 34-13 48l-37.9-.9c-.1.6-.1.9-.1.9l43 1c-11-14 13-48 13-48zM78.1 448h-3l13.6 38s-6.5 6.5-19.9 6.9c15.5.5 22.9-6.9 22.9-6.9l-13.6-38zM51.6 511h-2s10 2 8 6h2c2-4-8-6-8-6zM83.6 511h-2s10 2 8 6h2c2-4-8-6-8-6z"/><path class="st1" d="M500.6 167.7h383v14.5h-383z"/><linearGradient id="SVGID_17_" gradientUnits="userSpaceOnUse" x1="692" y1="-4.9" x2="692" y2="-500.9" gradientTransform="translate(0 664)"><stop offset="0" stop-color="gray" stop-opacity=".25"/><stop offset=".54" stop-color="gray" stop-opacity=".12"/><stop offset="1" stop-color="gray" stop-opacity=".1"/></linearGradient><path fill="url(#SVGID_17_)" d="M493 163.1h398v496H493z"/><path class="st3" d="M500.6 182.2h383v459.5h-383z"/><circle class="st4" cx="509.5" cy="175.2" r="3.5"/><circle class="st5" cx="519.1" cy="175.2" r="3.5"/><circle class="st6" cx="528.8" cy="175.2" r="3.5"/><g class="st7"><path class="st8" d="M524.6 202.7h336v9h-336z"/></g><linearGradient id="SVGID_18_" gradientUnits="userSpaceOnUse" x1="595.1" y1="-268.3" x2="595.1" y2="-422.3" gradientTransform="translate(0 664)"><stop offset="0" stop-color="gray" stop-opacity=".25"/><stop offset=".54" stop-color="gray" stop-opacity=".12"/><stop offset="1" stop-color="gray" stop-opacity=".1"/></linearGradient><path fill="url(#SVGID_18_)" d="M522.6 241.7h145v154h-145z"/><path class="st3" d="M525.6 246.7h139v144h-139z"/><linearGradient id="SVGID_19_" gradientUnits="userSpaceOnUse" x1="788.1" y1="-191.3" x2="788.1" y2="-345.3" gradientTransform="translate(0 664)"><stop offset="0" stop-color="gray" stop-opacity=".25"/><stop offset=".54" stop-color="gray" stop-opacity=".12"/><stop offset="1" stop-color="gray" stop-opacity=".1"/></linearGradient><path fill="url(#SVGID_19_)" d="M715.6 318.7h145v154h-145z"/><path class="st3" d="M718.6 323.7h139v144h-139z"/><linearGradient id="SVGID_20_" gradientUnits="userSpaceOnUse" x1="696.1" y1="-49.3" x2="696.1" y2="-155.3" gradientTransform="translate(0 664)"><stop offset="0" stop-color="gray" stop-opacity=".25"/><stop offset=".54" stop-color="gray" stop-opacity=".12"/><stop offset="1" stop-color="gray" stop-opacity=".1"/></linearGradient><path fill="url(#SVGID_20_)" d="M525.6 508.7h341v106h-341z"/><path class="st9" d="M532.6 515.7h328v95h-328z"/><path class="st19" d="M540.6 524.7h320v-9h-328v95h8z"/><linearGradient id="SVGID_21_" gradientUnits="userSpaceOnUse" x1="749.106" y1="-188.933" x2="749.106" y2="-312.907" gradientTransform="translate(-154.5 569.52)"><stop offset="0" stop-color="gray" stop-opacity=".25"/><stop offset=".54" stop-color="gray" stop-opacity=".12"/><stop offset="1" stop-color="gray" stop-opacity=".1"/></linearGradient><path d="M641.6 278.2c-22.3-26-61.5-28.9-87.4-6.6-26 22.3-28.9 61.5-6.6 87.4 22.3 26 61.5 28.9 87.4 6.6 13.7-11.8 21.6-28.9 21.6-47 0-14.8-5.3-29.1-15-40.4zm-25 77.5c-20.4 12.1-46.8 5.4-58.9-15.1-12.1-20.4-5.4-46.8 15.1-58.9s46.8-5.4 58.9 15.1c3.9 6.6 6 14.2 6 21.9 0 15.2-8 29.3-21.1 37z" fill="url(#SVGID_21_)"/><path class="st4" d="M625.7 291.9l13.7-11.8c-11.2-13-27.5-20.5-44.7-20.5v18c11.9.1 23.2 5.3 31 14.3z"/><path class="st6" d="M594.6 359.7c-5.8 0-11.6-1.2-16.9-3.7l-7.4 16.4c17.6 8 37.9 6.8 54.5-3l-9.2-15.5c-6.4 3.8-13.6 5.8-21 5.8z"/><path class="st16" d="M653.6 318.7c0-14.1-5.1-27.8-14.3-38.5L625.6 292c14.8 17.1 12.9 42.9-4.2 57.7-1.8 1.6-3.8 3-5.9 4.3l9.2 15.5c18-10.7 28.9-30 28.9-50.8z"/><path class="st8" d="M553.6 318.7c0-22.6 18.4-41 41-41v-18c-32.6 0-59 26.4-59 59 0 23.2 13.6 44.2 34.6 53.7l7.4-16.4c-14.6-6.6-24-21.2-24-37.3z"/><linearGradient id="SVGID_22_" gradientUnits="userSpaceOnUse" x1="790.6" y1="-301.32" x2="790.6" y2="-319.32" gradientTransform="translate(0 664)"><stop offset="0" stop-color="gray" stop-opacity=".25"/><stop offset=".54" stop-color="gray" stop-opacity=".12"/><stop offset="1" stop-color="gray" stop-opacity=".1"/></linearGradient><path fill="url(#SVGID_22_)" d="M737.6 344.7h106v18h-106z"/><path class="st8" d="M738.6 345.7h104v16h-104z"/><path class="st4" d="M738.6 372.7h76v16h-76z"/><path class="st6" d="M738.6 399.7h52v16h-52z"/><path class="st16" d="M738.6 426.7h94v16h-94z"/><path class="st1" d="M525.6 419.7h149v9h-149zM525.6 434.7h84v9h-84zM624.6 434.7h29v9h-29zM624.6 467.7h29v9h-29zM525.6 464.7h84v9h-84zM525.6 449.7h149v9h-149zM713.6 242.7h149v9h-149zM713.6 257.7h84v9h-84zM812.6 257.7h29v9h-29zM812.6 290.7h29v9h-29zM713.6 287.7h84v9h-84zM713.6 272.7h149v9h-149z"/><linearGradient id="SVGID_23_" gradientUnits="userSpaceOnUse" x1="760.6" y1="35.7" x2="760.6" y2="13.7" gradientTransform="translate(0 664)"><stop offset="0" stop-color="gray" stop-opacity=".25"/><stop offset=".54" stop-color="gray" stop-opacity=".12"/><stop offset="1" stop-color="gray" stop-opacity=".1"/></linearGradient><circle cx="760.6" cy="688.7" r="11" fill="url(#SVGID_23_)"/><circle class="st4" cx="760.6" cy="688.7" r="8"/><linearGradient id="SVGID_24_" gradientUnits="userSpaceOnUse" x1="607.6" y1="23.7" x2="607.6" y2="-97.3" gradientTransform="translate(0 664)"><stop offset="0" stop-color="gray" stop-opacity=".25"/><stop offset=".54" stop-color="gray" stop-opacity=".12"/><stop offset="1" stop-color="gray" stop-opacity=".1"/></linearGradient><path fill="url(#SVGID_24_)" d="M435.6 566.7h344v121h-344z"/><path class="st3" d="M445.6 571.7h328v95h-328z"/><path fill="none" stroke="#4e91f2" stroke-width="3" stroke-miterlimit="10" d="M456.6 648.7h304"/><linearGradient id="SVGID_25_" gradientUnits="userSpaceOnUse" x1="482.1" y1="-18.3" x2="482.1" y2="-73.3" gradientTransform="translate(0 664)"><stop offset="0" stop-color="gray" stop-opacity=".25"/><stop offset=".54" stop-color="gray" stop-opacity=".12"/><stop offset="1" stop-color="gray" stop-opacity=".1"/></linearGradient><path fill="url(#SVGID_25_)" d="M459.6 590.7h45v55h-45z"/><path class="st8" d="M462.1 593.2h40v51h-40z"/><path class="st6" d="M712.6 629.7h40v16h-40z"/><path class="st16" d="M637.6 608.7h40v36h-40z"/><path class="st4" d="M549.6 614.7h40v30h-40zM445.6 666.7h328v14h-328z"/><linearGradient id="SVGID_26_" gradientUnits="userSpaceOnUse" x1="459.6" y1="35.7" x2="459.6" y2="13.7" gradientTransform="translate(0 664)"><stop offset="0" stop-color="gray" stop-opacity=".25"/><stop offset=".54" stop-color="gray" stop-opacity=".12"/><stop offset="1" stop-color="gray" stop-opacity=".1"/></linearGradient><circle cx="459.6" cy="688.7" r="11" fill="url(#SVGID_26_)"/><circle class="st4" cx="459.6" cy="688.7" r="8"/><path class="st4" d="M437.6 575.7h8v105h-8z"/><path opacity=".2" d="M437.6 575.7h8v105h-8z"/><linearGradient id="SVGID_27_" gradientUnits="userSpaceOnUse" x1="486.33" y1="44.73" x2="600.65" y2="44.73" gradientTransform="translate(-154.5 569.52)"><stop offset="0" stop-color="gray" stop-opacity=".25"/><stop offset=".54" stop-color="gray" stop-opacity=".12"/><stop offset="1" stop-color="gray" stop-opacity=".1"/></linearGradient><path d="M446.2 586.8v-.3-.5c0-.2 0-.2-.1-.3s-.1-.3-.1-.4-.1-.2-.1-.3-.1-.3-.2-.4l-.1-.3c-.1-.1-.2-.3-.3-.4l-.1-.2c-.1-.2-.3-.4-.4-.5-.8-.9-1.7-1.5-2.8-2.1.8-.9 1.4-1.9 1.8-3.1.1-.3.2-.6.2-.9v-.3-.6-.3-.5c0-.2 0-.2-.1-.3s-.1-.3-.1-.4-.1-.2-.1-.3-.1-.3-.2-.4l-.1-.3c-.1-.1-.2-.3-.3-.4l-.1-.2c-.1-.2-.3-.4-.4-.5-1-1-2.2-1.9-3.5-2.4 0 0-6.3 2.3-6.8 4.9-4.7 1-31.8 6.7-50.5 6.2l-.1-.4c0-6.1-3.4-11.8-8.8-14.7V560v-.8c0-.3-.1-.5-.1-.8l.1-.1.5-.3.7-.5.5-.3c.3-.2.7-.5 1-.8l.4-.3c.2-.2.5-.4.7-.6l.4-.4c.3-.3.5-.6.8-.9l.3-.3c.2-.3.5-.6.7-.9l.3-.4.6-.9.2-.3.6-1.2.2-.4c.1-.3.3-.7.4-1l.1-.4c.1-.5.3-.9.4-1.4v-.3c.1-.4.1-.8.2-1.2v-.4c0-.5.1-1 .1-1.5 0-2.8-.7-5.6-2.1-8.1 1.1-.3 1.7-.5 1.6-.6-.4-.5-.8-1.1-1.3-1.6l-.4-.5c-.3-.3-.6-.7-.9-1l-.5-.5c-.3-.3-.6-.6-.9-.8l-.5-.4c-.4-.3-.8-.6-1.1-.9l-.3-.2c-.5-.3-.9-.7-1.4-1l-.5-.3c-.3-.2-.6-.4-.9-.5l-.8-.2-.9-.4-.6-.3-.9-.3-.6-.2c-.5-.2-.9-.3-1.4-.4l-.7-.2-.8-.2-.8-.1-.7-.1-.8-.1h-1.5c-.4 0-.9 0-1.3.1-10.2.8-19.2 9.8-19.2 24v11.7h16v5.3c-5.9 2.7-9.6 8.6-9.6 15v45.5l-13.6 62.4h-.2l-2.7 11.9 19.2 3.1.8.1c2-.9-1.4-4.9-2.9-8-.2-.3-.3-.7-.4-1-.2-.6-.3-1.3-.4-1.9l14.7-48.3h-.1l.3-1.1s18.7 8 23.6 24.1c3.9 13 1.5 21.5.4 24.2h-.1v.2c-.2.5-.4.8-.4.8h.4v8.8h20.3c1.9-1-2.1-3.7-4.1-6-.7-.7-1.1-1.6-1.3-2.5h.3l.2-.7c5.2-24.1-2.8-49.1-20.9-65.8 0-.1.1-.1.1-.2 1.9-5.9 3.1-11.9 3.5-18.1 15.5 1.5 36.1.4 51.5-11.5 1.5-1.1 2.9-2.3 4.2-3.6 1.3-.1 3.7-.8 5-4.6.1-.3.2-.6.2-.9v-.3c.3-.1.3-.3.4-.6z" fill="url(#SVGID_27_)"/><path class="st8" d="M365 604.5s46.9 14.9 72.9-10l-5.5-7.2s-50.4 11.2-62.4 3-5 14.2-5 14.2z"/><path class="st33" d="M436.5 593.5l.9 1.2c-26 24.9-72.9 10-72.9 10s-.1-.4-.3-1c5.7 1.7 48.1 13.1 72.3-10.2z"/><path class="st52" d="M436.9 594.5s3.8.9 5.6-4.3-4.4-7.4-4.4-7.4-6.4 2.4-6.4 4.9 5.2 6.8 5.2 6.8z"/><path class="st33" d="M436.3 593.6s3.8.9 5.6-4.3c.6-1.4.4-3.1-.5-4.4 1.3 1.4 1.7 3.4 1.1 5.2-1.8 5.2-5.6 4.3-5.6 4.3-1.5-1.3-2.9-2.7-4.1-4.3 1 1.3 2.2 2.5 3.5 3.5z"/><path id="_x34_635430b-7803-4f1f-9770-b56b2b482545" class="st8" d="M387.2 687.3h13.9c-.1 1.3.4 2.6 1.3 3.6 1.9 2.2 5.6 4.8 3.9 5.7h-19.1v-9.3z"/><path class="st33" d="M401.4 690.8c-.9-.9-1.4-2.2-1.3-3.6h1c-.1 1.3.4 2.6 1.3 3.6 1.9 2.2 5.6 4.8 3.9 5.7h-1c1.7-.9-2-3.5-3.9-5.7z"/><path id="a892faa3-7b18-4010-9d55-72c2aac7ddb8" class="st8" d="M337.7 684.4l13 2.1c-.4 1.5-.2 3.2.6 4.6 1.4 3 4.6 6.7 2.7 7.5l-18.8-3 2.5-11.2z"/><path class="st33" d="M350.3 691.1c-.7-1.4-.9-3-.6-4.6l-12-2v-.2l13 2.1c-.4 1.5-.2 3.2.6 4.6 1.4 3 4.6 6.7 2.7 7.5l-.8-.1c1.5-.9-1.5-4.5-2.9-7.3z"/><path class="st52" d="M366.7 577.1c-3.9 0-7.1-3.2-7.1-7.1v-6.8c0-3.9 3.2-7.1 7.1-7.1 3.9 0 7.1 3.2 7.1 7.1v6.8c0 3.9-3.2 7.1-7.1 7.1z"/><circle class="st52" cx="366.5" cy="547.8" r="15.6"/><path class="st33" d="M372 570v-6.8c0-.5-.1-1-.2-1.5 7.7-3.9 10.7-13.4 6.8-21-2.5-4.9-7.5-8.1-13-8.5h.9c8.6 0 15.6 7 15.6 15.6 0 5.9-3.3 11.2-8.5 13.9.1.5.2 1 .2 1.5v6.8c0 3.9-3.1 7-6.9 7.1-.3 0-.7 0-1-.1 3.5-.4 6.1-3.4 6.1-7z"/><path class="st8" d="M350.6 625.7s30.1 3.4 31.2 0c7.8-23.9 0-42.8 0-42.8 0-8.6-7-15.6-15.6-15.6s-15.6 7-15.6 15.6v42.8z"/><path class="st34" d="M350.6 625.7L337 688.2h13.6l14.1-46.4s17.6 7.6 22.2 22.7 0 23.7 0 23.7h14.6l.2-.7c4.9-22.7-2.6-46.2-19.8-61.8"/><path class="st33" d="M380.1 625.7c7.8-23.9 0-42.8 0-42.8 0-8.2-6.4-15.1-14.6-15.6h1c8.6 0 15.6 7 15.6 15.6 0 0 7.8 18.9 0 42.8-.4 1.2-4.5 1.6-9.6 1.5 4.1 0 7.2-.4 7.6-1.5z"/><g class="st7"><path class="st3" d="M364.4 642.9l-13.9 45.5h-2l14.1-46.4c.1.1.7.4 1.8.9zM379.8 626h2c17.2 15.6 24.7 39.1 19.8 61.8l-.2.7h-2l.2-.7c4.9-22.7-2.6-46.3-19.8-61.8z"/></g><path class="st8" d="M363 594.5s46.9 14.9 72.9-10l-5.5-7.2s-50.4 11.2-62.4 3-5 14.2-5 14.2z"/><path class="st33" d="M434.5 583.5l.9 1.2c-26 24.9-72.9 10-72.9 10s-.1-.4-.3-1c5.7 1.7 48.1 13.1 72.3-10.2z"/><path class="st52" d="M434.9 584.5s3.8.9 5.6-4.3-4.4-7.4-4.4-7.4-6.4 2.4-6.4 4.9 5.2 6.8 5.2 6.8z"/><path class="st33" d="M434.3 583.6s3.8.9 5.6-4.3c.6-1.4.4-3.1-.5-4.4 1.3 1.4 1.7 3.4 1.1 5.2-1.8 5.2-5.6 4.3-5.6 4.3-1.5-1.3-2.9-2.7-4.1-4.3 1 1.3 2.2 2.5 3.5 3.5z"/><path class="st34" d="M367.6 542.7l-1 21h-22v-11.2c0-22.4 23.7-30.9 37-12.9.4.5-14 3.1-14 3.1z"/><path class="st33" d="M362.7 530c5.6.5 11.4 3.5 15.9 9.7.3.4-14 3-14 3l-1 21h3l1-21s14.3-2.6 14-3c-5.3-7.3-12.4-10.2-18.9-9.7z"/><path class="st8" d="M537 54.3c1.6.1 3.4.2 5.3.2h13.5c-.4-1.5-.8-2.8-1.3-3.9 1.5-.1 3-.4 4.5-.8.2 1.3.7 2.8 1.3 4.7h12.9c1.7 0 3.6-.1 5.4-.2v3.4c-1.9-.1-4.2-.2-6.9-.2h-29.3c-2 0-3.8.1-5.4.2v-3.4zm40.5 34.6c.1 1.9-.6 3.1-2.1 3.6s-2.9.8-4.3.9c-.5-1.5-1.1-2.8-1.9-3.9 1.2 0 2.4 0 3.4-.1s1.4-.9 1.3-2.5V75.1H542v18h-3.8c.1-1.8.2-5.3.2-10.7 0-5.5-.1-8.9-.2-10.1h39.4c-.1 1.8-.2 3.7-.2 5.8v10.8zm-6.9-24c0 1.4.1 2.8.2 4.3h-26.4c.1-1.1.2-2.6.2-4.3 0-1.7-.1-3.3-.2-4.7h26.4c-.1 1.7-.2 3.2-.2 4.7zm-3.4 1.5V63h-19.1v3.4h19.1zm.2 16.4c0 1.5.1 3 .2 4.5h-19.1c.2-1.5.4-3 .4-4.5 0-1.6-.1-3.1-.4-4.5h19.1c-.1 1.3-.2 2.8-.2 4.5zm-3.4 1.8v-3.8h-12.2v3.8H564zM618 63.8c-.5.4-1.3 1.4-2.4 3.2-1.3 1.9-2.8 4.1-4.7 6.8-1.1-.8-2.3-1.4-3.4-2.1 1.6-1.5 3-3.2 4.2-5.3 1.2-2 2-3.7 2.5-5.1 1.5.8 2.7 1.6 3.8 2.5zm2.3 13.1c1-1.6 1.7-3.7 2.1-6.2 1.2.6 2.5 1.1 3.8 1.5-1.1 2.9-2.1 5.3-3 7.1l5.3 5.3c-1.1.9-2.2 1.8-3.2 2.8-.9-1.4-2.3-3-4.1-4.9-1 1.1-2.2 2.4-3.6 3.8s-3.5 3.3-6.4 5.5c-1-1.3-2.1-2.3-3.4-3 1.6-.8 3.4-1.8 5.3-3.2 1.9-1.4 3.7-3.3 5.4-5.8-1.8-1.5-3.8-3.2-6.2-5.3l1.9-2.6c2 1.9 4.1 3.5 6.1 5zm4.3-19.6c1.9 0 3.6-.1 5.1-.2v3.2c-1.5-.1-3.1-.2-4.9-.2h-11.4c-2 0-3.8.1-5.4.2v-3.2c1.6.1 3.4.2 5.4.2h11.2zm-2.4-2.1c-1.1.5-2.3 1-3.6 1.5-.8-1.9-1.6-3.9-2.6-6 1.1-.4 2.3-.8 3.6-1.3.9 1.9 1.8 3.8 2.6 5.8zm5 10.3c1.1 1.5 2.1 2.8 3 3.9-1.1.6-2.2 1.4-3.2 2.3-2.5-3.6-4.4-6.2-5.6-7.9 1-.5 2-1.2 3-2.3.8 1.2 1.7 2.5 2.8 4zm4.9 5.3c-.5-1.4-1.3-2.6-2.3-3.8 1.5-2.3 2.9-5.1 4.1-8.4 1.2-3.4 2.1-6.6 2.6-9.6 1.5.8 3.1 1.3 4.9 1.7-.6.6-1.3 1.6-1.9 2.9-.6 1.3-1.3 3-2.1 5 7.9 0 12.7-.1 14.4-.2v3.2c-1.5-.1-3.2-.2-5.1-.2-.1 3.6-.6 7.4-1.3 11.3s-1.9 7.3-3.6 10c.4 1.1 1.6 2.4 3.7 3.9s4.2 2.6 6.5 3.4c-1.5.9-2.5 2.1-3 3.6-2.1-1.1-3.9-2.3-5.4-3.7s-2.9-2.8-4.1-4.4c-1.6 1.5-3.3 2.8-5 4s-4.2 2.7-7.4 4.4c-.6-1.4-1.7-2.5-3.2-3.4 1.6-.3 3.9-1.2 6.8-2.9s5.1-3.3 6.6-5c-1-2.1-1.8-4.3-2.3-6.6s-1.1-4.8-1.6-7.7l-1.3 2.5zm5.3 1.5c.6 2.6 1.3 5 2.3 7.2 1.2-2.4 2.2-5.5 2.7-9.4.6-3.9.8-6.8.7-8.8h-6.6c-1 2.6-1.9 4.6-2.8 6 .9 0 1.7-.2 2.6-.8.2 1.4.6 3.3 1.1 5.8zM742.8 104.3c0-5-.1-8.3-.2-9.8h4.5c-.3 1.5-.4 4.8-.4 9.8H757c0-5.1-.1-8.4-.2-9.9h4.5c-.3 1.5-.4 4.8-.4 9.9h3.8c2.3 0 4.2-.1 5.8-.2v3.4c-1.6-.1-3.6-.2-5.8-.2H761v10.9h6.4c2.3 0 4.1-.1 5.6-.2v3.4c-1.4-.1-3.2-.2-5.4-.2h-31.9c-2.4 0-4.3.1-5.6.2V118c1.4.1 3.2.2 5.6.2h7.1v-10.9h-3.2c-3 0-5.3.1-6.8.2v-3.4c1.6.1 3.9.2 6.9.2h3.1zm-.4 26.7c-2.8 2.1-5.6 3.7-8.3 5-.9-1.3-1.9-2.3-3-3.2 2.6-1.1 5.1-2.4 7.4-3.8 2.3-1.4 4.5-3.2 6.7-5.3 1.4 1.1 2.7 2.1 4.1 3-1.8.7-4.1 2.2-6.9 4.3zm14.7-12.9v-10.9h-10.3v10.9h10.3zm7.5 9.4c2.9 1.8 5.4 3.5 7.5 5.3-1.1.9-2.1 1.9-3 3-2.1-1.6-4.5-3.3-7-5-2.6-1.7-4.8-3-6.8-4 1-1 1.9-2.1 2.8-3.2 1.4.8 3.6 2.2 6.5 3.9zM840.2 115.1v3.4c-3.1.6-5.8 1.5-8.2 2.5-2.3 1.1-4.2 1.9-5.5 2.5h12.2c2.6 0 5.1-.1 7.3-.2v3.4c-2.1-.1-4.6-.2-7.3-.2h-12.4v6c.1 1.2-.3 2.2-1.4 2.8-1.1.6-3 1.1-5.7 1.5 0-1.3-.5-2.6-1.5-3.9 2.9.1 4.4 0 4.7-.5.2-.4.4-2.4.4-5.9h-13.9c-2.5 0-4.7.1-6.6.2v-3.4c2 .1 4.3.2 6.9.2h13.5c0-.4-.1-.9-.2-1.5l8.3-3.9h-17.4c-1.6 0-3.6.1-6 .2v-3.4c1.6.1 3.8.2 6.4.2h26.4zm-13.4-17.8h9.9c2.4 0 4.6-.1 6.8-.2v3.4c-2.1-.1-4.4-.2-6.8-.2h-25.3c-2.3 0-4.7.1-7.3.2v-3.4c3 .1 5.8.2 8.4.2h10.1c-.3-.8-.8-2.1-1.7-3.9l4.1-1.1c1 2.5 1.6 4.1 1.8 5zm10.4 10.7c0 1.4.1 2.8.2 4.1h-27.2c.1-1.5.2-2.9.2-4.3 0-1.5-.1-3-.2-4.5h27.2c-.2 1.6-.2 3.2-.2 4.7zm-3.4 1.5v-3.6h-20.1v3.6h20.1z"/><g><path class="st8" d="M103.4 593.3h9.4c-.6.6-1.3 1.7-2.2 3.2-.8 1.5-1.6 2.9-2.3 4.3h5.8c-.1 2.3-.2 4.4-.2 6.6v20.3c0 1.2-.3 2.1-.9 2.6-.6.5-2 .9-4.1 1.1-.1-1.3-.6-2.5-1.5-3.8 1.6.1 2.6.1 3 0 .4-.1.6-.4.6-.9v-8.1h-3.8v8.4h-3v-8.4h-3.9c-.1 1.6-.4 3.5-.8 5.7s-1.3 4.5-2.6 6.8c-.9-.8-2-1.3-3.4-1.5 1.2-1.5 2.2-3.6 2.7-6.4.6-2.7.9-5.5 1-8.2.1-2.7.2-5.3.2-8v-5.8c-.8.9-1.3 1.6-1.7 2.1-.6-.9-1.4-1.8-2.4-2.8 1.7-1.4 3.5-3.3 5.3-5.9 1.8-2.6 3.1-4.8 3.8-6.7.5.6 1.7 1.3 3.8 1.9-1 .9-1.9 2-2.8 3.5zm1.3 7.5c1-1.8 1.9-3.3 2.6-4.7h-5.8c-1.1 1.5-2.4 3.1-3.8 4.7h7zm-.5 15v-4.9h-3.6l-.2 4.9h3.8zm0-7.7v-4.5h-3.6v4.5h3.6zm6.7 0v-4.5h-3.8v4.5h3.8zm0 7.7v-4.9h-3.8v4.9h3.8zm13.1-21.2c0-2.9-.1-5-.4-6.4h3.6c-.1 1.3-.2 3.4-.2 6.4v2.6h7.9c-.1 1.9-.2 5-.2 9.4 0 4.3.1 7.3.2 9.2h-3.4v-1.7H127v10.7c1.9-.3 3.7-.5 5.4-.8-.4-1.6-.9-3.5-1.7-5.6 1-.4 2-.7 3-.9 1.5 4 2.8 8.1 3.9 12.4-1.3.2-2.4.6-3.4 1.1-.3-1.4-.6-2.9-.9-4.5-6 1-10.1 1.7-12.4 2.3-2.3.5-3.8 1.1-4.5 1.7-.5-1.5-1-2.9-1.5-4.3 1.5 0 4.5-.3 9-.9v-11.1h-4.1v4.5h-3.2c.1-2.6.2-6.3.2-11.1 0-4.9-.1-8.3-.2-10.3h7.3v-2.7zm0 16.7V600h-4.1v11.3h4.1zm7.5 0V600H127v11.3h4.5zM166.2 595.3v7.5h8.4c2.1 0 4.2-.1 6.4-.2v3.6c-2.1 0-4.3-.1-6.4-.2h-8.4v6.9h13.3c1.9 0 3.8-.1 5.8-.2v3.6c-2-.1-3.9-.2-5.8-.2h-13.3v10.1c.1 1.9-.5 3.2-1.8 3.9s-3.5 1.2-6.7 1.5c-.1-1.5-.8-2.9-1.9-4.3 2.4 0 4.1-.2 5.1-.5s1.4-1.1 1.3-2.3v-8.4h-13.5c-2.3.1-4.4.2-6.4.2v-3.6c2.1.1 4.2.2 6.4.2h13.5V606H154c-2.3 0-4.6.1-6.9.2v-3.6c2.3.1 4.6.2 6.9.2h8.3v-7.1c-6.5.4-11.4.6-14.8.8-.4-1.4-.9-2.6-1.7-3.6 4.5.1 10.3-.1 17.5-.7 7.2-.6 12.3-1.4 15.3-2.5.8 1.8 1.6 3.2 2.4 4.3-1.7.2-6.7.6-14.8 1.3zM226.6 592.2c2 0 4.1-.1 6.4-.2v3.6c-2-.1-4.1-.2-6.2-.2h-1.1v30.9c0 2.3-.7 3.7-2 4.4-1.3.7-4 1.2-8 1.6-.3-1.6-.8-3.1-1.5-4.5 2.6.1 4.5.1 5.6-.2 1.1-.3 1.7-.9 1.7-2.1v-30.2H199c-3.3 0-6.2.1-8.8.2V592c2.6.1 5.5.2 8.6.2h27.8zm-12.2 14.2v9.2c0 2.1.1 3.9.2 5.4h-3.9v-3.4H200v5.1h-3.8c.1-.9.2-2.3.2-4.3v-12c0-2-.1-3.8-.2-5.4h18.4c-.1 1.6-.2 3.4-.2 5.4zm-3.7 8.1v-10.3H200v10.3h10.7zM274.2 591.2c-.8 1.4-1.7 3.3-2.9 5.7-1.2 2.4-2.4 4.7-3.7 6.8h9c-1.8 5.1-3.3 8.9-4.8 11.3-1.4 2.4-2.9 4.5-4.4 6.3 1.4 1 3.4 2.1 6.1 3.2 2.7 1.1 5.4 2 8.2 2.6-1.4 1.5-2.3 2.8-2.6 3.9-4.6-1.5-9.4-3.9-14.3-7.3-2.6 2-5.3 3.5-8 4.6-2.7 1.1-5.6 2-8.7 2.9-.3-.6-1-1.7-2.3-3.2 7.1-1.5 12.5-3.7 16.1-6.6-1.8-1.9-3.4-4-5.1-6.3-1.6-2.3-3.1-4.6-4.3-6.8-.5 2.1-1.1 4.2-1.9 6.1-.8 1.9-1.6 3.8-2.5 5.4s-2 3.3-3.1 4.7c-1.1 1.4-2.8 3.3-4.9 5.5-.6-.9-1.6-1.9-2.8-3.2 3.1-2.4 5.6-5.2 7.5-8.4 1.9-3.3 3.2-6.3 3.9-9.3.8-2.9 1.3-5.7 1.6-8.4.3-2.7.5-4.9.5-6.7h-2.3c-1.9 0-3.9.1-6.2.2V591c2.3.1 4.3.2 6.2.2h25.7zm-15.3 21c2.4 3.4 4.3 5.7 5.8 6.9 1.1-1.1 2.3-2.7 3.6-4.8 1.2-2.1 2.4-4.6 3.6-7.6H262c.9-1.4 1.8-3 2.8-5 1-1.9 2.2-4.5 3.6-7.6h-13.9c-.1 2-.4 5.2-.9 9.6 1.1 2.3 2.9 5.1 5.3 8.5z"/></g></svg>