<svg version="1.1" id="b32a285a-6b04-4396-8e15-f52ff515c3cb" xmlns="http://www.w3.org/2000/svg" x="0" y="0" viewBox="0 0 832 832" xml:space="preserve"><style>.st0{fill:none;stroke:#3f3d56;stroke-width:2;stroke-miterlimit:10}.st1{fill:#2f2e41}.st3{fill:#3f3d56}.st4{fill:#fff}.st5{fill:#6c63ff}.st6{fill:#ff6584}</style><path class="st0" d="M248 255h144"/><ellipse transform="rotate(-69.084 206.813 409.682)" class="st1" cx="206.8" cy="409.7" rx="39.5" ry="12.4"/><path d="M827.4 509c15.7 116.6-5.7 233.3-114.2 278.8s-233.3-5.7-278.8-114.2 61.8-173.4 114.2-278.8C655 181 778.7 146.9 827.4 509z" fill="#f2f2f2"/><ellipse class="st3" cx="632" cy="794.2" rx="170" ry="23.1"/><path transform="rotate(-15.45 544.843 741.22)" class="st1" d="M523.3 729.1h43v24h-43z"/><ellipse transform="rotate(-15.45 518.448 743.33)" class="st1" cx="518.4" cy="743.2" rx="7.5" ry="20"/><ellipse transform="rotate(-82.282 639.382 654.095)" class="st1" cx="639.4" cy="654.1" rx="39.5" ry="12.4"/><circle class="st1" cx="631.6" cy="728" r="79"/><path transform="rotate(-15.45 544.843 727.219)" class="st1" d="M523.3 715.1h43v24h-43z"/><ellipse transform="rotate(-15.45 518.447 729.328)" class="st1" cx="518.4" cy="729.2" rx="7.5" ry="20"/><circle class="st4" cx="652.4" cy="682.8" r="27"/><circle class="st3" cx="661" cy="670.8" r="9"/><path class="st5" d="M722.9 782.3c29.2-1.5 51.6-28.8 50-61.1S746.2 664 717 665.5s-33.8 24.4-32.2 56.7 8.8 61.6 38.1 60.1z"/><path class="st4" d="M599.3 694.6c-9.9.8-18.6-6.6-19.4-16.5-.8-9.9 6.6-18.6 16.5-19.4s12.6 7.1 13.4 17-.6 18.1-10.5 18.9z"/><path class="st0" d="M199.5 358.6h188.7l29.2 33.4 46.6 53.2 30.5-133.8h86.2"/><circle class="st5" cx="222.8" cy="374.9" r="13.7"/><circle class="st5" cx="306.3" cy="360.9" r="13.7"/><circle class="st5" cx="418.4" cy="394.2" r="13.7"/><circle class="st5" cx="571.4" cy="313.6" r="13.7"/><circle class="st5" cx="486.3" cy="360.9" r="13.7"/><circle class="st0" cx="285.6" cy="581.2" r="14.8"/><ellipse class="st3" cx="170" cy="809.3" rx="170" ry="23.1"/><circle class="st1" cx="160.8" cy="696.3" r="79"/><path class="st1" d="M124.8 758.3h24v43h-24zM172.8 758.3h24v43h-24z"/><ellipse class="st1" cx="144.8" cy="801.8" rx="20" ry="7.5"/><ellipse class="st1" cx="192.8" cy="800.8" rx="20" ry="7.5"/><circle class="st4" cx="162.8" cy="676.3" r="27"/><circle class="st3" cx="162.8" cy="676.3" r="9"/><path class="st5" d="M84.2 622.9c-6.4-28.6 14-57.4 45.5-64.5s62.3 10.4 68.6 39-14.5 39.1-46.1 46.1-61.6 7.9-68-20.6z"/><circle class="st1" cx="133.8" cy="469.3" r="79"/><path class="st1" d="M97.8 531.3h24v43h-24zM145.8 531.3h24v43h-24z"/><ellipse class="st1" cx="117.8" cy="574.8" rx="20" ry="7.5"/><ellipse class="st1" cx="165.8" cy="573.8" rx="20" ry="7.5"/><circle class="st4" cx="135.8" cy="449.3" r="27"/><circle class="st3" cx="135.8" cy="449.3" r="9"/><path class="st5" d="M57.2 395.9c-6.4-28.6 14-57.4 45.5-64.5s62.3 10.4 68.6 39-14.5 39.1-46.1 46.1-61.6 7.9-68-20.6z"/><ellipse transform="rotate(-64.627 44.822 432.698)" class="st1" cx="44.8" cy="432.7" rx="12.4" ry="39.5"/><path class="st4" d="M95 497.8c0 7.7 19.9 23 42 23s42.8-21.8 42.8-29.5-20.7 1.5-42.8 1.5-42-2.7-42 5z"/><path class="st5" d="M551.5 564.4h126.1v64.2H551.5z"/><path class="st0" d="M541.6 574.8h126.1V639H541.6z"/><path class="st6" d="M84.6 198.7h36v36h-36z"/><path class="st0" d="M75.6 186.7h36v36h-36z"/><circle class="st1" cx="622.1" cy="189.2" r="79"/><path transform="rotate(-10.263 660.675 267.152)" class="st1" d="M648.6 245.6h24v43h-24z"/><path transform="rotate(-10.263 613.452 275.71)" class="st1" d="M601.4 254.1h24v43h-24z"/><ellipse transform="rotate(-40.262 613.04 302.087)" class="st1" cx="613.1" cy="302.1" rx="20" ry="7.5"/><ellipse transform="rotate(-40.262 659.286 293.715)" class="st1" cx="659.3" cy="293.7" rx="20" ry="7.5"/><circle class="st4" cx="616.6" cy="169.9" r="27"/><circle class="st3" cx="605.5" cy="160.2" r="9"/><path class="st5" d="M684.4 103.2c1.2-29.2-24-54-56.3-55.3s-59.4 21.3-60.6 50.6 21.3 35.9 53.5 37.2 62.2-3.2 63.4-32.5z"/><ellipse transform="rotate(-77.091 549.157 174.803)" class="st1" cx="549.1" cy="174.8" rx="12.4" ry="39.5"/><ellipse transform="rotate(-77.091 704.233 200.593)" class="st1" cx="704.2" cy="200.6" rx="12.4" ry="39.5"/><path class="st4" d="M643.8 220.3c1.8 9.8-4.7 19.1-14.5 20.9-9.8 1.8-19.1-4.7-20.9-14.5s5.8-13.2 15.6-15 18-1.2 19.8 8.6z"/><path class="st0" d="M428.6 98.7l91 70"/><circle class="st6" cx="385.6" cy="67.7" r="68"/><ellipse transform="rotate(-82.282 609.729 672.867)" class="st1" cx="609.7" cy="672.8" rx="39.5" ry="12.4"/><circle class="st5" cx="68.8" cy="785.9" r="13.7"/><path class="st6" d="M256.6 769.9h36v36h-36z"/><circle class="st5" cx="256.8" cy="793.9" r="13.7"/><circle class="st5" cx="320" cy="254.7" r="13.7"/><circle class="st6" cx="443.8" cy="679" r="6.5"/><path class="st0" d="M475.8 787.4V713"/><circle class="st3" cx="475.8" cy="713" r="10.5"/><path class="st3" d="M475.8 758.9s-1.5-32.3-32.3-28.6"/></svg>