<svg version="1.1" id="adb96194-0c93-4caf-add0-a6cc39fafbf3" xmlns="http://www.w3.org/2000/svg" x="0" y="0" viewBox="0 0 460 460" xml:space="preserve"><style>.st2{fill:#536dfe}.st4{fill:none;stroke:#2f2e41;stroke-width:2;stroke-miterlimit:10}.st5{fill:#f2f2f2}</style><path fill="#3f3d56" d="M.6.9h460v460H.6z"/><path d="M231.6 159.9h-2.3c-53 0-95.9 43-95.9 96s43 95.9 96 95.9 95.9-43 95.9-96c0-15.9-4-31.6-11.6-45.6l-79.4 59.7-2.7-110z" fill="none"/><path class="st2" d="M313.8 210.2c25.2 46.6 7.9 104.9-38.7 130.1s-104.9 7.9-130.1-38.7-7.9-104.9 38.7-130.1c14-7.6 29.7-11.6 45.7-11.6h2.3l-1-41h-1.3c-75.6 0-136.9 61.4-136.9 137s61.4 136.9 137 136.9 136.9-61.4 136.9-137c0-24.8-6.8-49.2-19.5-70.4l-33.1 24.8z"/><path d="M313.8 210.2l33-24.8c-24.5-40.9-68.5-66-116.2-66.5l1 41c34.5.8 65.8 20 82.2 50.3z" fill="#ff6584"/><path class="st4" d="M298.3 374.3l48.1 48.6M331 76.8l-33.4 59.6"/><path class="st5" d="M307.4 422.9h79v18h-79zM289.4 58.9h79v18h-79z"/><path d="M160.8 81.9h-52c-3.5-20.5-3.5-41.5 0-62h52c-5.9 20.2-5.9 41.7 0 62z" fill="#ff6584"/><path class="st2" d="M86.4 81.9h-52c-3.5-20.5-3.5-41.5 0-62h52c-5.9 20.2-5.9 41.7 0 62z"/></svg>