<?xml version="1.0" encoding="utf-8"?>
<!-- Generator: Adobe Illustrator 22.0.0, SVG Export Plug-In . SVG Version: 6.00 Build 0)  -->
<svg version="1.1" id="b07e16be-2c10-4721-ba95-38a6ee556ecd"
	 xmlns="http://www.w3.org/2000/svg" xmlns:xlink="http://www.w3.org/1999/xlink" x="0px" y="0px" viewBox="0 0 720 720"
	 style="enable-background:new 0 0 720 720;" xml:space="preserve">
<style type="text/css">
	.st0{opacity:0.1;fill:#6C63FF;enable-background:new    ;}
	.st1{fill:#6C63FF;}
	.st2{fill:#444053;}
	.st3{fill:#3F3D56;}
	.st4{fill:#FFFFFF;}
	.st5{opacity:0.8;fill:#FA5959;enable-background:new    ;}
	.st6{opacity:0.8;fill:#FED253;enable-background:new    ;}
	.st7{opacity:0.8;fill:#8CCF4D;enable-background:new    ;}
	.st8{opacity:0.3;}
	.st9{fill:none;stroke:#3F3D56;stroke-miterlimit:10;}
	.st10{opacity:0.1;fill:#3F3D56;enable-background:new    ;}
	.st11{fill:url(#SVGID_1_);}
	.st12{fill:#FFFFA5;}
	.st13{fill:url(#SVGID_2_);}
	.st14{fill:#FF69B4;}
	.st15{fill:#7CFCFF;}
	.st16{fill:url(#SVGID_3_);}
	.st17{fill:url(#SVGID_4_);}
	.st18{fill:url(#SVGID_5_);}
	.st19{fill:url(#SVGID_6_);}
	.st20{fill:url(#SVGID_7_);}
</style>
<title>schedule</title>
<path class="st0" d="M389.5,107.1c-44.3-0.1-86.9-20.4-127.7-43S180.6,16.4,137.2,5.6c-28-6.9-59.7-6.5-81.5,18.2
	c-21,23.7-27,63.2-29.8,99.6c-2.2,27.4-3.1,56.1,5.2,81.3c5.8,17.5,15.6,31.8,22.6,48.4c24.3,57.8,9.9,131.4-13.5,190.3
	c-11,27.6-23.8,54.1-32.1,83.3S-3.6,589.1,5,618c8.5,28.7,27.5,49.6,47.9,63.9c41.5,29.1,89.8,35.5,136.7,38.1
	c104,5.7,208.1-4.5,311.9-14.8c38.4-3.8,77-7.7,114.6-19.1c20.9-6.3,42.4-15.8,57.2-36.5c18.8-26.4,22.5-69.6,8.8-100.7
	c-23.1-52.3-83.6-62.4-100.2-118.8c-9.2-31.1-1.4-66.6,10.1-96.6c24.6-64.1,67-121.4,67.6-193.2c0.4-49.4-21.8-97.5-54.9-119.1
	C570-1.5,522.8,4.1,498.7,45.8C473.7,88.8,428.6,107.2,389.5,107.1z"/>
<path class="st1" d="M609.6,589.2c0,0-7.8-7.6-15.6-2.2c0,0,2.4,6.8,12.2,6.1L609.6,589.2z"/>
<path class="st1" d="M610.6,589.6c0,0,2.4,13.3-3.6,22.4c0,0-3.6-5.5,0-19.1L610.6,589.6z"/>
<path class="st1" d="M620.4,576.8c0,0-0.6-11.4-18-7.6c0,0-0.1,7.3,6,10.8C614.5,583.5,617.3,580.6,620.4,576.8z"/>
<path class="st1" d="M621.4,576.8c0,0,7.4,3.5,0.8,27.6c0,0-4.8-1.6-5.7-11.2C615.7,583.6,618.2,580.2,621.4,576.8z"/>
<path class="st1" d="M631.3,560.6c0,0,1-18.7-16.8-16.8c0,0-1.3,16.9,13.7,21.3L631.3,560.6z"/>
<path class="st1" d="M643,539.5c0,0-2.4-21.2-20.2-14.8c0,0-0.1,18.3,17.3,19.9L643,539.5z"/>
<path class="st1" d="M651.6,517.6c0,0-4.1-20.6-21.7-14.5c0,0,4.2,18.6,20.5,18.3L651.6,517.6z"/>
<path class="st1" d="M659.7,496.3c0,0-4-21.4-21-15c0,0,5.7,20.4,19.8,18.7L659.7,496.3z"/>
<path class="st1" d="M665,476.1c0,0-3.1-26.2-18.9-20.4c0,0,4.6,23.8,17.7,24.2L665,476.1z"/>
<path class="st1" d="M669.9,451.6c0,0-3.7-26.5-19.7-18.8c0,0,6.3,25,18.6,22.3L669.9,451.6z"/>
<path class="st1" d="M672.9,428.8c0,0-5.9-26.4-18.2-25.7c0,0,6,27.9,17.2,31L672.9,428.8z"/>
<path class="st1" d="M674.9,406.6c0,0-6.4-31.8-16.5-29.4c0,0,4.4,24.3,16.1,34.3L674.9,406.6z"/>
<path class="st1" d="M676,380.1c0,0-6-26.5-15.9-27.6c0,0,4.1,26.1,15.7,34.4L676,380.1z"/>
<path class="st1" d="M677.2,355.4c0,0-7.4-26.6-14-27.1c0,0,3.2,26.1,13.4,31.4L677.2,355.4z"/>
<path class="st1" d="M678,332.4c0,0-4.6-28.8-11.1-31.2c0,0,0.9,23.6,10.5,33.3L678,332.4z"/>
<path class="st1" d="M680.5,302.2c0,0-4.8-23-10.1-26.5c0,0,1.1,27,8.9,32.1L680.5,302.2z"/>
<path class="st1" d="M682.5,282.4l1-40.5c0,0-9.9,30.5-1.7,47.7L682.5,282.4z"/>
<path class="st1" d="M690.2,242.3c0,0,7.2-29.6,8.9-31.3c0,0-14.1,19.1-12.7,43.8L690.2,242.3z"/>
<path class="st1" d="M631.7,560.5c0,0,12.6-2.4,12.2,23.8c0,0-11.4,2.7-15.1-19.1L631.7,560.5z"/>
<path class="st1" d="M643.6,538.8c0,0,14.6-0.1,13.4,26.8c0,0-12.2,3.2-16.3-21.8L643.6,538.8z"/>
<path class="st1" d="M651.7,519.4c0,0,13.2-9.2,21.7,14.5c0,0-12.2,7.6-22.8-10.6L651.7,519.4z"/>
<path class="st1" d="M660,496.5c0,0,13.5-9.8,21.5,13.3c0,0-14.1,7.1-22.6-9.7L660,496.5z"/>
<path class="st1" d="M664.8,476.6c0,0,13-18.4,23.4,0.2c0,0-13.3,15.1-24,3.8L664.8,476.6z"/>
<path class="st1" d="M669.2,451c0,0,13.1-18.8,23.4,0.8c0,0-14.7,15.4-23.9,3.1L669.2,451z"/>
<path class="st1" d="M671.6,428.1c0,0,10.1-23.5,22-18.2c0,0-10.5,24.9-21.9,23.7L671.6,428.1z"/>
<path class="st1" d="M674.6,406.5c0,0,10.2-29.6,19.8-24.4c0,0-7.3,22.7-20,29.4L674.6,406.5z"/>
<path class="st1" d="M675.3,378.6c0,0,10.4-23.3,20.3-20.5c0,0-8.5,23.6-21.2,27.1L675.3,378.6z"/>
<path class="st1" d="M676.1,354.9c0,0,8.1-26.1,14.7-26.3c0,0-3.9,25.9-14.2,30.7L676.1,354.9z"/>
<path class="st1" d="M677.7,331.8c0,0,9-26.5,15.8-26.5c0,0-4.6,22.6-15.5,28.8L677.7,331.8z"/>
<path class="st1" d="M679,303.9c0,0,6.7-21.9,12.3-24.3c0,0-3.4,26.7-11.6,30.1L679,303.9z"/>
<path class="st1" d="M683.4,281.7l15.1-33.9c0,0-3.9,33.4-17.2,40.4L683.4,281.7z"/>
<path class="st1" d="M693.7,245c0,0,17.5-17.8,18.1-20.7c0,0-8.9,25-25.4,29.4L693.7,245z"/>
<path class="st1" d="M694.8,236.9c0,0,20.1-28.5,25.2-28.5c0,0-16.6,1.1-25.7,26.9L694.8,236.9z"/>
<path class="st2" d="M679.2,308.1l0.8,0.1c3.8-43.6,9.3-69.5,15.5-72.6l-0.3-1C688.7,237.9,683.1,263.4,679.2,308.1z"/>
<path class="st2" d="M673.7,412.4l1.1,0.1c0.3-4,0.4-8.3,0.5-12.4c1.1-36.1,2.7-69.3,4.8-94.1l-0.6-1.2c-2.2,24.9-4.3,59.1-5.3,95.3
	C674.2,404.3,674,408.4,673.7,412.4z"/>
<path class="st2" d="M589,610c0.2-0.1,19.6-13,39.9-43.5c11.8-17.9,21.7-38.5,29.1-61c9.3-28.1,15.1-62.6,17-96.1l-1.1,0.8
	c-4.3,75.3-27.5,126.7-46,154.7c-20,30.3-39.3,43.1-39.5,43.2L589,610z"/>
<path class="st3" d="M666.8,47.6h-611c-3,0-5.5,3.6-5.5,8.1v23.4h621.9V55.6C672.2,51.2,669.8,47.6,666.8,47.6z"/>
<path class="st4" d="M50.4,79.1v526.7c0,8.9,4.9,16.2,11,16.2l0,0h599.9c6,0,11-7.2,11-16.2l0,0V79.1H50.4z"/>
<ellipse class="st5" cx="60.2" cy="63.1" rx="2.5" ry="3.8"/>
<ellipse class="st6" cx="67.2" cy="63.1" rx="2.5" ry="3.8"/>
<ellipse class="st7" cx="74.2" cy="63.1" rx="2.5" ry="3.8"/>
<g class="st8">
	<rect x="74.2" y="111" class="st9" width="574.8" height="478.6"/>
	<rect x="149.2" y="111" class="st9" width="424.8" height="478.6"/>
	<rect x="224.3" y="111" class="st9" width="274.7" height="478.6"/>
	<rect x="299.3" y="111" class="st9" width="124.6" height="478.6"/>
	<line class="st9" x1="361.6" y1="111" x2="361.6" y2="589.6"/>
	<rect x="74.2" y="180.4" class="st9" width="574.8" height="339.7"/>
	<rect x="74.2" y="248.9" class="st9" width="574.8" height="202.7"/>
	<rect x="74.2" y="317.4" class="st9" width="574.8" height="65.7"/>
</g>
<rect x="164.2" y="137.7" class="st10" width="45.1" height="24.4"/>
<rect x="93.6" y="204.3" class="st10" width="33.7" height="24.4"/>
<rect x="237.3" y="137.7" class="st10" width="45.1" height="24.4"/>
<rect x="306" y="137.7" class="st10" width="45.1" height="24.4"/>
<rect x="369.6" y="137.7" class="st10" width="45.1" height="24.4"/>
<rect x="440.8" y="137.7" class="st10" width="45.1" height="24.4"/>
<rect x="513.3" y="137.7" class="st10" width="45.1" height="24.4"/>
<rect x="590.2" y="137.7" class="st10" width="45.1" height="24.4"/>
<linearGradient id="SVGID_1_" gradientUnits="userSpaceOnUse" x1="328.5841" y1="-417.2013" x2="328.5841" y2="-459.1534" gradientTransform="matrix(1 0 0 1 0 720)">
	<stop  offset="0" style="stop-color:#808080;stop-opacity:0.25"/>
	<stop  offset="0.54" style="stop-color:#808080;stop-opacity:0.12"/>
	<stop  offset="1" style="stop-color:#808080;stop-opacity:0.1"/>
</linearGradient>
<rect x="313.9" y="260.8" class="st11" width="29.3" height="42"/>
<rect x="314.4" y="261.6" class="st12" width="28.3" height="40.5"/>
<linearGradient id="SVGID_2_" gradientUnits="userSpaceOnUse" x1="614.6666" y1="-279.801" x2="614.6666" y2="-321.7531" gradientTransform="matrix(1 0 0 1 0 720)">
	<stop  offset="0" style="stop-color:#808080;stop-opacity:0.25"/>
	<stop  offset="0.54" style="stop-color:#808080;stop-opacity:0.12"/>
	<stop  offset="1" style="stop-color:#808080;stop-opacity:0.1"/>
</linearGradient>
<rect x="600" y="398.2" class="st13" width="29.3" height="42"/>
<rect x="172.6" y="330" class="st14" width="28.3" height="40.5"/>
<rect x="245.7" y="195.8" class="st15" width="28.3" height="40.5"/>
<rect x="316.8" y="195.8" class="st15" width="28.3" height="40.5"/>
<rect x="93.6" y="270" class="st10" width="33.7" height="24.4"/>
<rect x="93.6" y="338.6" class="st10" width="33.7" height="24.4"/>
<rect x="93.6" y="407.1" class="st10" width="33.7" height="24.4"/>
<rect x="93.6" y="475.6" class="st10" width="33.7" height="24.4"/>
<rect x="93.6" y="544.1" class="st10" width="33.7" height="24.4"/>
<rect x="378" y="195.8" class="st15" width="28.3" height="40.5"/>
<rect x="449.2" y="195.8" class="st15" width="28.3" height="40.5"/>
<rect x="378" y="261.6" class="st12" width="28.3" height="40.5"/>
<rect x="600.5" y="262" class="st12" width="28.3" height="40.5"/>
<rect x="378" y="330.5" class="st14" width="28.3" height="40.5"/>
<rect x="449.2" y="261.6" class="st12" width="28.3" height="40.5"/>
<rect x="522.4" y="262" class="st12" width="28.3" height="40.5"/>
<linearGradient id="SVGID_3_" gradientUnits="userSpaceOnUse" x1="535.8174" y1="-487.0089" x2="535.8174" y2="-528.9611" gradientTransform="matrix(1 0 0 1 0 720)">
	<stop  offset="0" style="stop-color:#808080;stop-opacity:0.25"/>
	<stop  offset="0.54" style="stop-color:#808080;stop-opacity:0.12"/>
	<stop  offset="1" style="stop-color:#808080;stop-opacity:0.1"/>
</linearGradient>
<rect x="521.2" y="191.1" class="st16" width="29.3" height="42"/>
<linearGradient id="SVGID_4_" gradientUnits="userSpaceOnUse" x1="612.7589" y1="-482.992" x2="612.7589" y2="-524.9442" gradientTransform="matrix(1 0 0 1 0 720)">
	<stop  offset="0" style="stop-color:#808080;stop-opacity:0.25"/>
	<stop  offset="0.54" style="stop-color:#808080;stop-opacity:0.12"/>
	<stop  offset="1" style="stop-color:#808080;stop-opacity:0.1"/>
</linearGradient>
<rect x="598.1" y="195.1" class="st17" width="29.3" height="42"/>
<linearGradient id="SVGID_5_" gradientUnits="userSpaceOnUse" x1="186.7194" y1="-416.8259" x2="186.7194" y2="-458.778" gradientTransform="matrix(1 0 0 1 0 720)">
	<stop  offset="0" style="stop-color:#808080;stop-opacity:0.25"/>
	<stop  offset="0.54" style="stop-color:#808080;stop-opacity:0.12"/>
	<stop  offset="1" style="stop-color:#808080;stop-opacity:0.1"/>
</linearGradient>
<rect x="172.1" y="261.2" class="st18" width="29.3" height="42"/>
<linearGradient id="SVGID_6_" gradientUnits="userSpaceOnUse" x1="259.8456" y1="-416.8259" x2="259.8456" y2="-458.778" gradientTransform="matrix(1 0 0 1 0 720)">
	<stop  offset="0" style="stop-color:#808080;stop-opacity:0.25"/>
	<stop  offset="0.54" style="stop-color:#808080;stop-opacity:0.12"/>
	<stop  offset="1" style="stop-color:#808080;stop-opacity:0.1"/>
</linearGradient>
<rect x="245.2" y="261.2" class="st19" width="29.3" height="42"/>
<rect x="245.7" y="330" class="st14" width="28.3" height="40.5"/>
<rect x="314.4" y="332.3" class="st14" width="28.3" height="40.5"/>
<linearGradient id="SVGID_7_" gradientUnits="userSpaceOnUse" x1="536.5805" y1="-280.4088" x2="536.5805" y2="-322.361" gradientTransform="matrix(1 0 0 1 0 720)">
	<stop  offset="0" style="stop-color:#808080;stop-opacity:0.25"/>
	<stop  offset="0.54" style="stop-color:#808080;stop-opacity:0.12"/>
	<stop  offset="1" style="stop-color:#808080;stop-opacity:0.1"/>
</linearGradient>
<rect x="521.9" y="397.7" class="st20" width="29.3" height="42"/>
</svg>
