<?xml version="1.0" encoding="utf-8"?>
<!-- Generator: Adobe Illustrator 22.0.0, SVG Export Plug-In . SVG Version: 6.00 Build 0)  -->
<svg version="1.1" id="图层_1" xmlns="http://www.w3.org/2000/svg" xmlns:xlink="http://www.w3.org/1999/xlink" x="0px" y="0px"
	 viewBox="0 0 48 48" style="enable-background:new 0 0 48 48;" xml:space="preserve">
<style type="text/css">
	.st0{fill:#37DB79;}
	.st1{enable-background:new    ;}
	.st2{fill:#FFFFFF;}
	.st3{fill:#00B74A;}
</style>
<circle class="st0" cx="24" cy="24" r="24"/>
<g class="st1">
	<path class="st2" d="M38.3,32.7c0,3.5-1.2,6.1-3.7,8c-2.4,1.9-5.8,2.9-10.2,2.9H13.8V4.8h9c8.8,0,13.3,3.1,13.3,9.4
		c0,2.3-0.6,4.2-1.9,5.8c-1.3,1.6-3.1,2.6-5.5,3.1c3,0.3,5.3,1.4,7,3.1C37.4,27.9,38.3,30.1,38.3,32.7z M32.3,14.5
		c0-2.3-0.8-4-2.4-5.1c-1.6-1.1-4-1.6-7.2-1.6h-5.2v14.1h5.3c3.1,0,5.5-0.6,7.1-1.9C31.5,18.7,32.3,16.9,32.3,14.5z M34.6,32.5
		c0-2.5-1-4.5-2.9-5.8c-1.9-1.3-4.7-2-8.2-2h-6v15.9h6.4c3.5,0,6.2-0.7,8-2.1C33.7,37.1,34.6,35.1,34.6,32.5z"/>
</g>
<rect x="19.6" y="7.5" class="st3" width="8.3" height="3"/>
<rect x="16.6" y="7.5" class="st3" width="3" height="33.8"/>
<rect x="18.6" y="21.5" class="st3" width="7.6" height="3.5"/>
<rect x="19.6" y="38.3" class="st3" width="8.3" height="3"/>
</svg>
