<svg version="1.1" id="图层_1" xmlns="http://www.w3.org/2000/svg" x="0" y="0" viewBox="0 0 100 120" xml:space="preserve"><style>.st2,.st5{fill:none;stroke:#fff;stroke-linecap:round;stroke-miterlimit:10}.st5{stroke-width:3}</style><path d="M67.5 120h-35C14.6 120 0 105.4 0 87.5v-55C0 14.6 14.6 0 32.5 0h35C85.4 0 100 14.6 100 32.5v55c0 17.9-14.6 32.5-32.5 32.5z" fill="#39b54a"/><path class="st2" d="M.5 73.5c3.5 0 3.5 4 7 4s3.5-4 7-4 3.5 4 7 4M78.5 75.5l7 4 7-4 7 4M.5 80.5c3.5 0 3.5 4 7 4s3.5-4 7-4 3.5 4 7 4M78.5 81.5l7 4 7-4 7 4"/><path class="st5" d="M28 13v74.9c0 9.5 7.7 17.2 17.2 17.2h23.4"/><path class="st5" d="M34.5 60h21.4C65.3 60 73 67.7 73 77.2v22.4"/></svg>