<svg class="icon" viewBox="0 0 1024 1024" xmlns="http://www.w3.org/2000/svg" width="200" height="200"><defs><style/></defs><path d="M924.445 131.282H99.555c-52.566 0-95.18 42.614-95.18 95.18v571.077c0 52.566 42.614 95.18 95.18 95.18h824.89c52.566 0 95.18-42.614 95.18-95.18V226.461c0-52.565-42.614-95.179-95.18-95.179zm-38.937 180.406L576.574 592.536c-36.615 33.286-92.533 33.286-129.148 0L138.492 311.688c-13.077-11.888-14.04-32.126-2.152-45.202 11.888-13.076 32.125-14.04 45.202-2.153l308.934 280.85c12.205 11.095 30.843 11.095 43.048 0l308.934-280.85c13.076-11.887 33.314-10.924 45.202 2.153 11.888 13.076 10.924 33.314-2.152 45.202z"/></svg>