<?xml version="1.0" standalone="no"?><!DOCTYPE svg PUBLIC "-//W3C//DTD SVG 1.1//EN" "http://www.w3.org/Graphics/SVG/1.1/DTD/svg11.dtd"><svg t="1554897211042" class="icon" style="" viewBox="0 0 1024 1024" version="1.1" xmlns="http://www.w3.org/2000/svg" p-id="590" xmlns:xlink="http://www.w3.org/1999/xlink" width="200" height="200"><defs><style type="text/css"></style></defs><path d="M928 226.133333c0-27.733333-19.2-53.333333-46.933333-59.733333C712.533333 121.6 612.266667 74.666667 533.333333 8.533333c-12.8-10.666667-29.866667-10.666667-40.533333 0-78.933333 66.133333-181.333333 113.066667-349.866667 157.866667-27.733333 6.4-46.933333 32-46.933333 59.733333v366.933334C96 659.2 128 744.533333 170.666667 789.333333c8.533333 10.666667 21.333333 25.6 36.266666 40.533334 29.866667 32 61.866667 59.733333 98.133334 87.466666 64 49.066667 130.133333 83.2 198.4 104.533334 2.133333 0 6.4 2.133333 10.666666 2.133333s6.4 0 10.666667-2.133333c68.266667-21.333333 134.4-57.6 198.4-104.533334 34.133333-25.6 66.133333-55.466667 98.133333-87.466666 14.933333-14.933333 27.733333-29.866667 36.266667-40.533334 42.666667-46.933333 74.666667-130.133333 74.666667-198.4v-211.2c-4.266667-64-4.266667-117.333333-4.266667-153.6z m-64 366.933334c0 49.066667-27.733333 121.6-59.733333 153.6l-2.133334 2.133333c-2.133333 4.266667-12.8 17.066667-32 36.266667-27.733333 29.866667-57.6 55.466667-89.6 78.933333-55.466667 42.666667-110.933333 72.533333-168.533333 91.733333-57.6-19.2-115.2-51.2-168.533333-91.733333-32-23.466667-61.866667-51.2-89.6-78.933333-19.2-19.2-29.866667-32-32-36.266667l-2.133334-2.133333c-32-34.133333-59.733333-104.533333-59.733333-155.733334v-211.2-153.6C320 183.466667 428.8 136.533333 512 72.533333c83.2 64 189.866667 110.933333 352 153.6v366.933334z" fill="#212121" p-id="591"></path><path d="M680.533333 360.533333l-204.8 202.666667-70.4-68.266667c-12.8-12.8-32-12.8-44.8 0-12.8 12.8-12.8 32 0 44.8l91.733334 91.733334c6.4 6.4 14.933333 8.533333 23.466666 8.533333s17.066667-2.133333 23.466667-8.533333l228.266667-224c12.8-12.8 12.8-32 0-44.8-12.8-12.8-34.133333-12.8-46.933334-2.133334z" fill="#212121" p-id="592"></path></svg>